<?xml version="1.0" standalone="no"?>
 <!DOCTYPE svg PUBLIC "-//W3C//DTD SVG 1.1//EN" 
 "http://www.w3.org/Graphics/SVG/1.1/DTD/svg11.dtd"> 
<svg xmlns="http://www.w3.org/2000/svg" version="1.1" 
    width="29.7002cm" height="21.0007cm" viewBox="0 0 116930 82680 ">
<title>SVG Picture created as Led-8x8.svg date 2017/01/08 14:57:54 </title>
  <desc>Picture generated by Eeschema-SVG </desc>
<g style="fill:#000000; fill-opacity:1;stroke:#000000; stroke-opacity:1;
stroke-linecap:round; stroke-linejoin:round; "
 transform="translate(0 0) scale(1 1)">
</g>
<g style="fill:#000000; fill-opacity:0.0; 
stroke:#000000; stroke-width:0; stroke-opacity:1; 
stroke-linecap:round; stroke-linejoin:round;">
</g>
<g style="fill:#840000; fill-opacity:0.0; 
stroke:#840000; stroke-width:0; stroke-opacity:1; 
stroke-linecap:round; stroke-linejoin:round;">
</g>
<g style="fill:#FFFFC2; fill-opacity:0.0; 
stroke:#FFFFC2; stroke-width:0; stroke-opacity:1; 
stroke-linecap:round; stroke-linejoin:round;">
</g>
<g style="fill:#FFFFC2; fill-opacity:0.6; 
stroke:#FFFFC2; stroke-width:0; stroke-opacity:1; 
stroke-linecap:round; stroke-linejoin:round;">
<rect x="52500" y="23000" width="24000" height="7000" rx="0" />
</g>
<g style="fill:#840000; fill-opacity:0.6; 
stroke:#840000; stroke-width:0; stroke-opacity:1; 
stroke-linecap:round; stroke-linejoin:round;">
</g>
<g style="fill:#840000; fill-opacity:0.0; 
stroke:#840000; stroke-width:100; stroke-opacity:1; 
stroke-linecap:round; stroke-linejoin:round;">
<rect x="52500" y="23000" width="24000" height="7000" rx="0" />
</g>
<g style="fill:#840000; fill-opacity:0.0; 
stroke:#840000; stroke-width:60; stroke-opacity:1; 
stroke-linecap:round; stroke-linejoin:round;">
<path d="M52500 29000
L51000 29000
" />
</g>
<g style="fill:#008484; fill-opacity:0.0; 
stroke:#008484; stroke-width:60; stroke-opacity:1; 
stroke-linecap:round; stroke-linejoin:round;">
<path d="M53000 29180
L53000 28780
L53150 28780
L53190 28800
L53200 28820
L53220 28860
L53220 28910
L53200 28950
L53190 28970
L53150 28990
L53000 28990
" />
<path d="M53530 28970
L53590 28990
L53600 29010
L53620 29050
L53620 29100
L53600 29140
L53590 29160
L53550 29180
L53400 29180
L53400 28780
L53530 28780
L53570 28800
L53590 28820
L53600 28860
L53600 28900
L53590 28930
L53570 28950
L53530 28970
L53400 28970
" />
<path d="M53990 28780
L53800 28780
L53780 28970
L53800 28950
L53830 28930
L53930 28930
L53970 28950
L53990 28970
L54000 29010
L54000 29100
L53990 29140
L53970 29160
L53930 29180
L53830 29180
L53800 29160
L53780 29140
" />
<path d="M54290 29330
L54270 29310
L54230 29260
L54210 29220
L54190 29160
L54180 29070
L54180 28990
L54190 28900
L54210 28840
L54230 28800
L54270 28740
L54290 28720
" />
<path d="M54670 29180
L54540 28990
" />
<path d="M54450 29180
L54450 28780
L54600 28780
L54640 28800
L54650 28820
L54670 28860
L54670 28910
L54650 28950
L54640 28970
L54600 28990
L54450 28990
" />
<path d="M54850 28970
L54980 28970
" />
<path d="M55040 29180
L54850 29180
L54850 28780
L55040 28780
" />
<path d="M55190 29160
L55240 29180
L55340 29180
L55380 29160
L55400 29140
L55410 29100
L55410 29070
L55400 29030
L55380 29010
L55340 28990
L55260 28970
L55220 28950
L55210 28930
L55190 28900
L55190 28860
L55210 28820
L55220 28800
L55260 28780
L55360 28780
L55410 28800
" />
<path d="M55590 28970
L55720 28970
" />
<path d="M55780 29180
L55590 29180
L55590 28780
L55780 28780
" />
<path d="M55890 28780
L56120 28780
" />
<path d="M56000 29180
L56000 28780
" />
<path d="M54350 28710
L56150 28710
" />
<path d="M56530 28760
L56190 29280
" />
<path d="M56840 29180
L56840 28780
" />
<path d="M56840 29160
L56800 29180
L56720 29180
L56680 29160
L56670 29140
L56650 29100
L56650 28990
L56670 28950
L56680 28930
L56720 28910
L56800 28910
L56840 28930
" />
<path d="M56990 28780
L57080 29180
L57160 28900
L57230 29180
L57330 28780
" />
<path d="M57770 28760
L57430 29280
" />
<path d="M57890 29070
L58080 29070
" />
<path d="M57850 29180
L57980 28780
L58110 29180
" />
<path d="M58250 29180
L58250 28780
L58340 28780
L58400 28800
L58440 28840
L58450 28880
L58470 28950
L58470 29010
L58450 29090
L58440 29120
L58400 29160
L58340 29180
L58250 29180
" />
<path d="M58870 29140
L58850 29160
L58800 29180
L58760 29180
L58700 29160
L58660 29120
L58650 29090
L58630 29010
L58630 28950
L58650 28880
L58660 28840
L58700 28800
L58760 28780
L58800 28780
L58850 28800
L58870 28820
" />
<path d="M59120 28780
L59160 28780
L59200 28800
L59220 28820
L59240 28860
L59250 28930
L59250 29030
L59240 29100
L59220 29140
L59200 29160
L59160 29180
L59120 29180
L59080 29160
L59060 29140
L59050 29100
L59030 29030
L59030 28930
L59050 28860
L59060 28820
L59080 28800
L59120 28780
" />
<path d="M59710 28760
L59370 29280
" />
<path d="M59850 29180
L59850 28780
L60000 28780
L60040 28800
L60050 28820
L60070 28860
L60070 28910
L60050 28950
L60040 28970
L60000 28990
L59850 28990
" />
<path d="M60470 29140
L60450 29160
L60400 29180
L60360 29180
L60300 29160
L60260 29120
L60250 29090
L60230 29010
L60230 28950
L60250 28880
L60260 28840
L60300 28800
L60360 28780
L60400 28780
L60450 28800
L60470 28820
" />
<path d="M60650 29180
L60650 28780
" />
<path d="M60840 29180
L60840 28780
L61060 29180
L61060 28780
" />
<path d="M61200 28780
L61430 28780
" />
<path d="M61310 29180
L61310 28780
" />
<path d="M61750 28780
L61560 28780
L61540 28970
L61560 28950
L61590 28930
L61690 28930
L61730 28950
L61750 28970
L61760 29010
L61760 29100
L61750 29140
L61730 29160
L61690 29180
L61590 29180
L61560 29160
L61540 29140
" />
<path d="M61900 29330
L61920 29310
L61950 29260
L61970 29220
L61990 29160
L62010 29070
L62010 28990
L61990 28900
L61970 28840
L61950 28800
L61920 28740
L61900 28720
" />
</g>
<g style="fill:#840000; fill-opacity:0.0; 
stroke:#840000; stroke-width:60; stroke-opacity:1; 
stroke-linecap:round; stroke-linejoin:round;">
<path d="M51860 28880
L51640 28880
" />
<path d="M51750 28880
L51750 28480
L51710 28540
L51670 28580
L51640 28600
" />
<path d="M52500 27000
L51000 27000
" />
</g>
<g style="fill:#008484; fill-opacity:0.0; 
stroke:#008484; stroke-width:60; stroke-opacity:1; 
stroke-linecap:round; stroke-linejoin:round;">
<path d="M53000 27180
L53000 26780
L53150 26780
L53190 26800
L53200 26820
L53220 26860
L53220 26910
L53200 26950
L53190 26970
L53150 26990
L53000 26990
" />
<path d="M53530 26970
L53590 26990
L53600 27010
L53620 27050
L53620 27100
L53600 27140
L53590 27160
L53550 27180
L53400 27180
L53400 26780
L53530 26780
L53570 26800
L53590 26820
L53600 26860
L53600 26900
L53590 26930
L53570 26950
L53530 26970
L53400 26970
" />
<path d="M53760 26780
L54000 26780
L53870 26930
L53930 26930
L53970 26950
L53990 26970
L54000 27010
L54000 27100
L53990 27140
L53970 27160
L53930 27180
L53810 27180
L53780 27160
L53760 27140
" />
<path d="M54290 27330
L54270 27310
L54230 27260
L54210 27220
L54190 27160
L54180 27070
L54180 26990
L54190 26900
L54210 26840
L54230 26800
L54270 26740
L54290 26720
" />
<path d="M54410 26780
L54670 27180
" />
<path d="M54670 26780
L54410 27180
" />
<path d="M54770 26780
L55000 26780
" />
<path d="M54880 27180
L54880 26780
" />
<path d="M55110 27070
L55300 27070
" />
<path d="M55070 27180
L55200 26780
L55330 27180
" />
<path d="M55660 27180
L55470 27180
L55470 26780
" />
<path d="M55990 27180
L55770 27180
" />
<path d="M55880 27180
L55880 26780
L55840 26840
L55800 26880
L55770 26900
" />
<path d="M56450 26760
L56110 27280
" />
<path d="M56810 27140
L56790 27160
L56740 27180
L56700 27180
L56640 27160
L56600 27120
L56590 27090
L56570 27010
L56570 26950
L56590 26880
L56600 26840
L56640 26800
L56700 26780
L56740 26780
L56790 26800
L56810 26820
" />
<path d="M57180 27180
L56990 27180
L56990 26780
" />
<path d="M57310 27180
L57310 26780
" />
<path d="M57530 27180
L57360 26950
" />
<path d="M57530 26780
L57310 27010
" />
<path d="M57710 27180
L57710 26780
" />
<path d="M58180 26760
L57840 27280
" />
<path d="M58390 26780
L58470 26780
L58510 26800
L58540 26840
L58560 26910
L58560 27050
L58540 27120
L58510 27160
L58470 27180
L58390 27180
L58350 27160
L58320 27120
L58300 27050
L58300 26910
L58320 26840
L58350 26800
L58390 26780
" />
<path d="M58960 27140
L58940 27160
L58890 27180
L58850 27180
L58790 27160
L58750 27120
L58740 27090
L58720 27010
L58720 26950
L58740 26880
L58750 26840
L58790 26800
L58850 26780
L58890 26780
L58940 26800
L58960 26820
" />
<path d="M59340 27180
L59120 27180
" />
<path d="M59230 27180
L59230 26780
L59190 26840
L59150 26880
L59120 26900
" />
<path d="M59650 26970
L59710 26990
L59720 27010
L59740 27050
L59740 27100
L59720 27140
L59710 27160
L59670 27180
L59520 27180
L59520 26780
L59650 26780
L59690 26800
L59710 26820
L59720 26860
L59720 26900
L59710 26930
L59690 26950
L59650 26970
L59520 26970
" />
<path d="M60200 26760
L59860 27280
" />
<path d="M60320 27070
L60510 27070
" />
<path d="M60280 27180
L60410 26780
L60540 27180
" />
<path d="M60680 27180
L60680 26780
L60770 26780
L60830 26800
L60870 26840
L60880 26880
L60900 26950
L60900 27010
L60880 27090
L60870 27120
L60830 27160
L60770 27180
L60680 27180
" />
<path d="M61300 27140
L61280 27160
L61230 27180
L61190 27180
L61130 27160
L61090 27120
L61080 27090
L61060 27010
L61060 26950
L61080 26880
L61090 26840
L61130 26800
L61190 26780
L61230 26780
L61280 26800
L61300 26820
" />
<path d="M61440 26780
L61680 26780
L61550 26930
L61610 26930
L61650 26950
L61670 26970
L61680 27010
L61680 27100
L61670 27140
L61650 27160
L61610 27180
L61490 27180
L61460 27160
L61440 27140
" />
<path d="M62140 26760
L61800 27280
" />
<path d="M62280 27180
L62280 26780
L62430 26780
L62470 26800
L62480 26820
L62500 26860
L62500 26910
L62480 26950
L62470 26970
L62430 26990
L62280 26990
" />
<path d="M62900 27140
L62880 27160
L62830 27180
L62790 27180
L62730 27160
L62690 27120
L62680 27090
L62660 27010
L62660 26950
L62680 26880
L62690 26840
L62730 26800
L62790 26780
L62830 26780
L62880 26800
L62900 26820
" />
<path d="M63080 27180
L63080 26780
" />
<path d="M63270 27180
L63270 26780
L63490 27180
L63490 26780
" />
<path d="M63630 26780
L63860 26780
" />
<path d="M63740 27180
L63740 26780
" />
<path d="M63950 26780
L64190 26780
L64060 26930
L64120 26930
L64160 26950
L64180 26970
L64190 27010
L64190 27100
L64180 27140
L64160 27160
L64120 27180
L64000 27180
L63970 27160
L63950 27140
" />
<path d="M64330 27330
L64350 27310
L64380 27260
L64400 27220
L64420 27160
L64440 27070
L64440 26990
L64420 26900
L64400 26840
L64380 26800
L64350 26740
L64330 26720
" />
</g>
<g style="fill:#840000; fill-opacity:0.0; 
stroke:#840000; stroke-width:60; stroke-opacity:1; 
stroke-linecap:round; stroke-linejoin:round;">
<path d="M51640 26520
L51660 26500
L51690 26480
L51790 26480
L51830 26500
L51850 26520
L51860 26560
L51860 26600
L51850 26650
L51620 26880
L51860 26880
" />
<path d="M52500 28000
L51000 28000
" />
</g>
<g style="fill:#008484; fill-opacity:0.0; 
stroke:#008484; stroke-width:60; stroke-opacity:1; 
stroke-linecap:round; stroke-linejoin:round;">
<path d="M53000 28180
L53000 27780
L53150 27780
L53190 27800
L53200 27820
L53220 27860
L53220 27910
L53200 27950
L53190 27970
L53150 27990
L53000 27990
" />
<path d="M53530 27970
L53590 27990
L53600 28010
L53620 28050
L53620 28100
L53600 28140
L53590 28160
L53550 28180
L53400 28180
L53400 27780
L53530 27780
L53570 27800
L53590 27820
L53600 27860
L53600 27900
L53590 27930
L53570 27950
L53530 27970
L53400 27970
" />
<path d="M53970 27910
L53970 28180
" />
<path d="M53870 27760
L53780 28050
L54020 28050
" />
<path d="M54290 28330
L54270 28310
L54230 28260
L54210 28220
L54190 28160
L54180 28070
L54180 27990
L54190 27900
L54210 27840
L54230 27800
L54270 27740
L54290 27720
" />
<path d="M54410 27780
L54670 28180
" />
<path d="M54670 27780
L54410 28180
" />
<path d="M54770 27780
L55000 27780
" />
<path d="M54880 28180
L54880 27780
" />
<path d="M55110 28070
L55300 28070
" />
<path d="M55070 28180
L55200 27780
L55330 28180
" />
<path d="M55660 28180
L55470 28180
L55470 27780
" />
<path d="M55770 27820
L55790 27800
L55820 27780
L55920 27780
L55960 27800
L55980 27820
L55990 27860
L55990 27900
L55980 27950
L55750 28180
L55990 28180
" />
<path d="M56450 27760
L56110 28280
" />
<path d="M56810 28140
L56790 28160
L56740 28180
L56700 28180
L56640 28160
L56600 28120
L56590 28090
L56570 28010
L56570 27950
L56590 27880
L56600 27840
L56640 27800
L56700 27780
L56740 27780
L56790 27800
L56810 27820
" />
<path d="M57180 28180
L56990 28180
L56990 27780
" />
<path d="M57310 28180
L57310 27780
" />
<path d="M57530 28180
L57360 27950
" />
<path d="M57530 27780
L57310 28010
" />
<path d="M57780 27780
L57860 27780
L57900 27800
L57930 27840
L57950 27910
L57950 28050
L57930 28120
L57900 28160
L57860 28180
L57780 28180
L57740 28160
L57710 28120
L57690 28050
L57690 27910
L57710 27840
L57740 27800
L57780 27780
" />
<path d="M58410 27760
L58070 28280
" />
<path d="M58620 27780
L58700 27780
L58740 27800
L58770 27840
L58790 27910
L58790 28050
L58770 28120
L58740 28160
L58700 28180
L58620 28180
L58580 28160
L58550 28120
L58530 28050
L58530 27910
L58550 27840
L58580 27800
L58620 27780
" />
<path d="M59190 28140
L59170 28160
L59120 28180
L59080 28180
L59020 28160
L58980 28120
L58970 28090
L58950 28010
L58950 27950
L58970 27880
L58980 27840
L59020 27800
L59080 27780
L59120 27780
L59170 27800
L59190 27820
" />
<path d="M59570 28180
L59350 28180
" />
<path d="M59460 28180
L59460 27780
L59420 27840
L59380 27880
L59350 27900
" />
<path d="M59880 27970
L59940 27990
L59950 28010
L59970 28050
L59970 28100
L59950 28140
L59940 28160
L59900 28180
L59750 28180
L59750 27780
L59880 27780
L59920 27800
L59940 27820
L59950 27860
L59950 27900
L59940 27930
L59920 27950
L59880 27970
L59750 27970
" />
<path d="M60430 27760
L60090 28280
" />
<path d="M60550 28070
L60740 28070
" />
<path d="M60510 28180
L60640 27780
L60770 28180
" />
<path d="M60910 28180
L60910 27780
L61000 27780
L61060 27800
L61100 27840
L61110 27880
L61130 27950
L61130 28010
L61110 28090
L61100 28120
L61060 28160
L61000 28180
L60910 28180
" />
<path d="M61530 28140
L61510 28160
L61460 28180
L61420 28180
L61360 28160
L61320 28120
L61310 28090
L61290 28010
L61290 27950
L61310 27880
L61320 27840
L61360 27800
L61420 27780
L61460 27780
L61510 27800
L61530 27820
" />
<path d="M61690 27820
L61710 27800
L61740 27780
L61840 27780
L61880 27800
L61900 27820
L61910 27860
L61910 27900
L61900 27950
L61670 28180
L61910 28180
" />
<path d="M62370 27760
L62030 28280
" />
<path d="M62510 28180
L62510 27780
L62660 27780
L62700 27800
L62710 27820
L62730 27860
L62730 27910
L62710 27950
L62700 27970
L62660 27990
L62510 27990
" />
<path d="M63130 28140
L63110 28160
L63060 28180
L63020 28180
L62960 28160
L62920 28120
L62910 28090
L62890 28010
L62890 27950
L62910 27880
L62920 27840
L62960 27800
L63020 27780
L63060 27780
L63110 27800
L63130 27820
" />
<path d="M63310 28180
L63310 27780
" />
<path d="M63500 28180
L63500 27780
L63720 28180
L63720 27780
" />
<path d="M63860 27780
L64090 27780
" />
<path d="M63970 28180
L63970 27780
" />
<path d="M64390 27910
L64390 28180
" />
<path d="M64290 27760
L64200 28050
L64440 28050
" />
<path d="M64560 28330
L64580 28310
L64610 28260
L64630 28220
L64650 28160
L64670 28070
L64670 27990
L64650 27900
L64630 27840
L64610 27800
L64580 27740
L64560 27720
" />
</g>
<g style="fill:#840000; fill-opacity:0.0; 
stroke:#840000; stroke-width:60; stroke-opacity:1; 
stroke-linecap:round; stroke-linejoin:round;">
<path d="M51620 27480
L51860 27480
L51730 27630
L51790 27630
L51830 27650
L51850 27670
L51860 27710
L51860 27800
L51850 27840
L51830 27860
L51790 27880
L51670 27880
L51640 27860
L51620 27840
" />
<path d="M76500 29000
L78000 29000
" />
</g>
<g style="fill:#008484; fill-opacity:0.0; 
stroke:#008484; stroke-width:60; stroke-opacity:1; 
stroke-linecap:round; stroke-linejoin:round;">
<path d="M75180 28800
L75150 28780
L75090 28780
L75030 28800
L74990 28840
L74980 28880
L74960 28950
L74960 29010
L74980 29090
L74990 29120
L75030 29160
L75090 29180
L75130 29180
L75180 29160
L75200 29140
L75200 29010
L75130 29010
" />
<path d="M75380 29180
L75380 28780
L75600 29180
L75600 28780
" />
<path d="M75800 29180
L75800 28780
L75890 28780
L75950 28800
L75990 28840
L76000 28880
L76020 28950
L76020 29010
L76000 29090
L75990 29120
L75950 29160
L75890 29180
L75800 29180
" />
</g>
<g style="fill:#840000; fill-opacity:0.0; 
stroke:#840000; stroke-width:60; stroke-opacity:1; 
stroke-linecap:round; stroke-linejoin:round;">
<path d="M77330 28610
L77330 28880
" />
<path d="M77230 28460
L77140 28750
L77380 28750
" />
<path d="M52500 24000
L51000 24000
" />
</g>
<g style="fill:#008484; fill-opacity:0.0; 
stroke:#008484; stroke-width:60; stroke-opacity:1; 
stroke-linecap:round; stroke-linejoin:round;">
<path d="M53000 24180
L53000 23780
L53150 23780
L53190 23800
L53200 23820
L53220 23860
L53220 23910
L53200 23950
L53190 23970
L53150 23990
L53000 23990
" />
<path d="M53530 23970
L53590 23990
L53600 24010
L53620 24050
L53620 24100
L53600 24140
L53590 24160
L53550 24180
L53400 24180
L53400 23780
L53530 23780
L53570 23800
L53590 23820
L53600 23860
L53600 23900
L53590 23930
L53570 23950
L53530 23970
L53400 23970
" />
<path d="M53870 23780
L53910 23780
L53950 23800
L53970 23820
L53990 23860
L54000 23930
L54000 24030
L53990 24100
L53970 24140
L53950 24160
L53910 24180
L53870 24180
L53830 24160
L53810 24140
L53800 24100
L53780 24030
L53780 23930
L53800 23860
L53810 23820
L53830 23800
L53870 23780
" />
<path d="M54290 24330
L54270 24310
L54230 24260
L54210 24220
L54190 24160
L54180 24070
L54180 23990
L54190 23900
L54210 23840
L54230 23800
L54270 23740
L54290 23720
" />
<path d="M54450 24180
L54450 23780
L54580 24070
L54710 23780
L54710 24180
" />
<path d="M54980 23780
L55060 23780
L55100 23800
L55130 23840
L55150 23910
L55150 24050
L55130 24120
L55100 24160
L55060 24180
L54980 24180
L54940 24160
L54910 24120
L54890 24050
L54890 23910
L54910 23840
L54940 23800
L54980 23780
" />
<path d="M55310 24160
L55360 24180
L55460 24180
L55500 24160
L55520 24140
L55530 24100
L55530 24070
L55520 24030
L55500 24010
L55460 23990
L55380 23970
L55340 23950
L55330 23930
L55310 23900
L55310 23860
L55330 23820
L55340 23800
L55380 23780
L55480 23780
L55530 23800
" />
<path d="M55710 24180
L55710 23780
" />
<path d="M56180 23760
L55840 24280
" />
<path d="M56320 24180
L56320 23780
L56410 23780
L56470 23800
L56510 23840
L56520 23880
L56540 23950
L56540 24010
L56520 24090
L56510 24120
L56470 24160
L56410 24180
L56320 24180
" />
<path d="M56720 24180
L56720 23780
" />
<path d="M57190 23760
L56850 24280
" />
<path d="M57310 24160
L57360 24180
L57460 24180
L57500 24160
L57520 24140
L57530 24100
L57530 24070
L57520 24030
L57500 24010
L57460 23990
L57380 23970
L57340 23950
L57330 23930
L57310 23900
L57310 23860
L57330 23820
L57340 23800
L57380 23780
L57480 23780
L57530 23800
" />
<path d="M57710 24180
L57710 23780
L57800 23780
L57860 23800
L57900 23840
L57910 23880
L57930 23950
L57930 24010
L57910 24090
L57900 24120
L57860 24160
L57800 24180
L57710 24180
" />
<path d="M58090 24070
L58280 24070
" />
<path d="M58050 24180
L58180 23780
L58310 24180
" />
<path d="M58730 23760
L58390 24280
" />
<path d="M58850 24070
L59040 24070
" />
<path d="M58810 24180
L58940 23780
L59070 24180
" />
<path d="M59210 24180
L59210 23780
" />
<path d="M59400 24180
L59400 23780
L59620 24180
L59620 23780
" />
<path d="M59890 23780
L59930 23780
L59970 23800
L59990 23820
L60010 23860
L60020 23930
L60020 24030
L60010 24100
L59990 24140
L59970 24160
L59930 24180
L59890 24180
L59850 24160
L59830 24140
L59820 24100
L59800 24030
L59800 23930
L59820 23860
L59830 23820
L59850 23800
L59890 23780
" />
<path d="M60480 23760
L60140 24280
" />
<path d="M60690 23780
L60770 23780
L60810 23800
L60840 23840
L60860 23910
L60860 24050
L60840 24120
L60810 24160
L60770 24180
L60690 24180
L60650 24160
L60620 24120
L60600 24050
L60600 23910
L60620 23840
L60650 23800
L60690 23780
" />
<path d="M61260 24140
L61240 24160
L61190 24180
L61150 24180
L61090 24160
L61050 24120
L61040 24090
L61020 24010
L61020 23950
L61040 23880
L61050 23840
L61090 23800
L61150 23780
L61190 23780
L61240 23800
L61260 23820
" />
<path d="M61510 23780
L61550 23780
L61590 23800
L61610 23820
L61630 23860
L61640 23930
L61640 24030
L61630 24100
L61610 24140
L61590 24160
L61550 24180
L61510 24180
L61470 24160
L61450 24140
L61440 24100
L61420 24030
L61420 23930
L61440 23860
L61450 23820
L61470 23800
L61510 23780
" />
<path d="M61800 24070
L61990 24070
" />
<path d="M61760 24180
L61890 23780
L62020 24180
" />
<path d="M62440 23760
L62100 24280
" />
<path d="M62650 23780
L62730 23780
L62770 23800
L62800 23840
L62820 23910
L62820 24050
L62800 24120
L62770 24160
L62730 24180
L62650 24180
L62610 24160
L62580 24120
L62560 24050
L62560 23910
L62580 23840
L62610 23800
L62650 23780
" />
<path d="M63220 24140
L63200 24160
L63150 24180
L63110 24180
L63050 24160
L63010 24120
L63000 24090
L62980 24010
L62980 23950
L63000 23880
L63010 23840
L63050 23800
L63110 23780
L63150 23780
L63200 23800
L63220 23820
" />
<path d="M63600 24180
L63380 24180
" />
<path d="M63490 24180
L63490 23780
L63450 23840
L63410 23880
L63380 23900
" />
<path d="M63760 24070
L63950 24070
" />
<path d="M63720 24180
L63850 23780
L63980 24180
" />
<path d="M64400 23760
L64060 24280
" />
<path d="M64520 24070
L64710 24070
" />
<path d="M64480 24180
L64610 23780
L64740 24180
" />
<path d="M65100 24180
L64970 23990
" />
<path d="M64880 24180
L64880 23780
L65030 23780
L65070 23800
L65080 23820
L65100 23860
L65100 23910
L65080 23950
L65070 23970
L65030 23990
L64880 23990
" />
<path d="M65280 23970
L65410 23970
" />
<path d="M65470 24180
L65280 24180
L65280 23780
L65470 23780
" />
<path d="M65770 23970
L65640 23970
" />
<path d="M65640 24180
L65640 23780
L65830 23780
" />
<path d="M66260 23760
L65920 24280
" />
<path d="M66400 24180
L66400 23780
L66550 23780
L66590 23800
L66600 23820
L66620 23860
L66620 23910
L66600 23950
L66590 23970
L66550 23990
L66400 23990
" />
<path d="M67020 24140
L67000 24160
L66950 24180
L66910 24180
L66850 24160
L66810 24120
L66800 24090
L66780 24010
L66780 23950
L66800 23880
L66810 23840
L66850 23800
L66910 23780
L66950 23780
L67000 23800
L67020 23820
" />
<path d="M67200 24180
L67200 23780
" />
<path d="M67390 24180
L67390 23780
L67610 24180
L67610 23780
" />
<path d="M67750 23780
L67980 23780
" />
<path d="M67860 24180
L67860 23780
" />
<path d="M68180 23780
L68220 23780
L68260 23800
L68280 23820
L68300 23860
L68310 23930
L68310 24030
L68300 24100
L68280 24140
L68260 24160
L68220 24180
L68180 24180
L68140 24160
L68120 24140
L68110 24100
L68090 24030
L68090 23930
L68110 23860
L68120 23820
L68140 23800
L68180 23780
" />
<path d="M68450 24330
L68470 24310
L68500 24260
L68520 24220
L68540 24160
L68560 24070
L68560 23990
L68540 23900
L68520 23840
L68500 23800
L68470 23740
L68450 23720
" />
</g>
<g style="fill:#840000; fill-opacity:0.0; 
stroke:#840000; stroke-width:60; stroke-opacity:1; 
stroke-linecap:round; stroke-linejoin:round;">
<path d="M51850 23480
L51660 23480
L51640 23670
L51660 23650
L51690 23630
L51790 23630
L51830 23650
L51850 23670
L51860 23710
L51860 23800
L51850 23840
L51830 23860
L51790 23880
L51690 23880
L51660 23860
L51640 23840
" />
<path d="M52500 25000
L51000 25000
" />
</g>
<g style="fill:#008484; fill-opacity:0.0; 
stroke:#008484; stroke-width:60; stroke-opacity:1; 
stroke-linecap:round; stroke-linejoin:round;">
<path d="M53000 25180
L53000 24780
L53150 24780
L53190 24800
L53200 24820
L53220 24860
L53220 24910
L53200 24950
L53190 24970
L53150 24990
L53000 24990
" />
<path d="M53530 24970
L53590 24990
L53600 25010
L53620 25050
L53620 25100
L53600 25140
L53590 25160
L53550 25180
L53400 25180
L53400 24780
L53530 24780
L53570 24800
L53590 24820
L53600 24860
L53600 24900
L53590 24930
L53570 24950
L53530 24970
L53400 24970
" />
<path d="M54000 25180
L53780 25180
" />
<path d="M53890 25180
L53890 24780
L53850 24840
L53810 24880
L53780 24900
" />
<path d="M54290 25330
L54270 25310
L54230 25260
L54210 25220
L54190 25160
L54180 25070
L54180 24990
L54190 24900
L54210 24840
L54230 24800
L54270 24740
L54290 24720
" />
<path d="M54450 25180
L54450 24780
L54580 25070
L54710 24780
L54710 25180
" />
<path d="M54910 25180
L54910 24780
" />
<path d="M55080 25160
L55130 25180
L55230 25180
L55270 25160
L55290 25140
L55300 25100
L55300 25070
L55290 25030
L55270 25010
L55230 24990
L55150 24970
L55110 24950
L55100 24930
L55080 24900
L55080 24860
L55100 24820
L55110 24800
L55150 24780
L55250 24780
L55300 24800
" />
<path d="M55550 24780
L55630 24780
L55670 24800
L55700 24840
L55720 24910
L55720 25050
L55700 25120
L55670 25160
L55630 25180
L55550 25180
L55510 25160
L55480 25120
L55460 25050
L55460 24910
L55480 24840
L55510 24800
L55550 24780
" />
<path d="M56180 24760
L55840 25280
" />
<path d="M56320 25180
L56320 24780
L56410 24780
L56470 24800
L56510 24840
L56520 24880
L56540 24950
L56540 25010
L56520 25090
L56510 25120
L56470 25160
L56410 25180
L56320 25180
" />
<path d="M56790 24780
L56870 24780
L56910 24800
L56940 24840
L56960 24910
L56960 25050
L56940 25120
L56910 25160
L56870 25180
L56790 25180
L56750 25160
L56720 25120
L56700 25050
L56700 24910
L56720 24840
L56750 24800
L56790 24780
" />
<path d="M57420 24760
L57080 25280
" />
<path d="M57540 25070
L57730 25070
" />
<path d="M57500 25180
L57630 24780
L57760 25180
" />
<path d="M57900 25180
L57900 24780
" />
<path d="M58090 25180
L58090 24780
L58310 25180
L58310 24780
" />
<path d="M58710 25180
L58490 25180
" />
<path d="M58600 25180
L58600 24780
L58560 24840
L58520 24880
L58490 24900
" />
<path d="M59170 24760
L58830 25280
" />
<path d="M59380 24780
L59460 24780
L59500 24800
L59530 24840
L59550 24910
L59550 25050
L59530 25120
L59500 25160
L59460 25180
L59380 25180
L59340 25160
L59310 25120
L59290 25050
L59290 24910
L59310 24840
L59340 24800
L59380 24780
" />
<path d="M59950 25140
L59930 25160
L59880 25180
L59840 25180
L59780 25160
L59740 25120
L59730 25090
L59710 25010
L59710 24950
L59730 24880
L59740 24840
L59780 24800
L59840 24780
L59880 24780
L59930 24800
L59950 24820
" />
<path d="M60200 24780
L60240 24780
L60280 24800
L60300 24820
L60320 24860
L60330 24930
L60330 25030
L60320 25100
L60300 25140
L60280 25160
L60240 25180
L60200 25180
L60160 25160
L60140 25140
L60130 25100
L60110 25030
L60110 24930
L60130 24860
L60140 24820
L60160 24800
L60200 24780
" />
<path d="M60640 24970
L60700 24990
L60710 25010
L60730 25050
L60730 25100
L60710 25140
L60700 25160
L60660 25180
L60510 25180
L60510 24780
L60640 24780
L60680 24800
L60700 24820
L60710 24860
L60710 24900
L60700 24930
L60680 24950
L60640 24970
L60510 24970
" />
<path d="M61190 24760
L60850 25280
" />
<path d="M61400 24780
L61480 24780
L61520 24800
L61550 24840
L61570 24910
L61570 25050
L61550 25120
L61520 25160
L61480 25180
L61400 25180
L61360 25160
L61330 25120
L61310 25050
L61310 24910
L61330 24840
L61360 24800
L61400 24780
" />
<path d="M61970 25140
L61950 25160
L61900 25180
L61860 25180
L61800 25160
L61760 25120
L61750 25090
L61730 25010
L61730 24950
L61750 24880
L61760 24840
L61800 24800
L61860 24780
L61900 24780
L61950 24800
L61970 24820
" />
<path d="M62350 25180
L62130 25180
" />
<path d="M62240 25180
L62240 24780
L62200 24840
L62160 24880
L62130 24900
" />
<path d="M62510 25070
L62700 25070
" />
<path d="M62470 25180
L62600 24780
L62730 25180
" />
<path d="M63150 24760
L62810 25280
" />
<path d="M63290 25180
L63290 24780
L63440 24780
L63480 24800
L63490 24820
L63510 24860
L63510 24910
L63490 24950
L63480 24970
L63440 24990
L63290 24990
" />
<path d="M63910 25140
L63890 25160
L63840 25180
L63800 25180
L63740 25160
L63700 25120
L63690 25090
L63670 25010
L63670 24950
L63690 24880
L63700 24840
L63740 24800
L63800 24780
L63840 24780
L63890 24800
L63910 24820
" />
<path d="M64090 25180
L64090 24780
" />
<path d="M64280 25180
L64280 24780
L64500 25180
L64500 24780
" />
<path d="M64640 24780
L64870 24780
" />
<path d="M64750 25180
L64750 24780
" />
<path d="M65200 25180
L64980 25180
" />
<path d="M65090 25180
L65090 24780
L65050 24840
L65010 24880
L64980 24900
" />
<path d="M65340 25330
L65360 25310
L65390 25260
L65410 25220
L65430 25160
L65450 25070
L65450 24990
L65430 24900
L65410 24840
L65390 24800
L65360 24740
L65340 24720
" />
</g>
<g style="fill:#840000; fill-opacity:0.0; 
stroke:#840000; stroke-width:60; stroke-opacity:1; 
stroke-linecap:round; stroke-linejoin:round;">
<path d="M51830 24480
L51750 24480
L51710 24500
L51690 24520
L51660 24580
L51640 24650
L51640 24800
L51660 24840
L51670 24860
L51710 24880
L51790 24880
L51830 24860
L51850 24840
L51860 24800
L51860 24710
L51850 24670
L51830 24650
L51790 24630
L51710 24630
L51670 24650
L51660 24670
L51640 24710
" />
<path d="M52500 26000
L51000 26000
" />
</g>
<g style="fill:#008484; fill-opacity:0.0; 
stroke:#008484; stroke-width:60; stroke-opacity:1; 
stroke-linecap:round; stroke-linejoin:round;">
<path d="M53000 26180
L53000 25780
L53150 25780
L53190 25800
L53200 25820
L53220 25860
L53220 25910
L53200 25950
L53190 25970
L53150 25990
L53000 25990
" />
<path d="M53530 25970
L53590 25990
L53600 26010
L53620 26050
L53620 26100
L53600 26140
L53590 26160
L53550 26180
L53400 26180
L53400 25780
L53530 25780
L53570 25800
L53590 25820
L53600 25860
L53600 25900
L53590 25930
L53570 25950
L53530 25970
L53400 25970
" />
<path d="M53780 25820
L53800 25800
L53830 25780
L53930 25780
L53970 25800
L53990 25820
L54000 25860
L54000 25900
L53990 25950
L53760 26180
L54000 26180
" />
<path d="M54290 26330
L54270 26310
L54230 26260
L54210 26220
L54190 26160
L54180 26070
L54180 25990
L54190 25900
L54210 25840
L54230 25800
L54270 25740
L54290 25720
" />
<path d="M54430 26160
L54480 26180
L54580 26180
L54620 26160
L54640 26140
L54650 26100
L54650 26070
L54640 26030
L54620 26010
L54580 25990
L54500 25970
L54460 25950
L54450 25930
L54430 25900
L54430 25860
L54450 25820
L54460 25800
L54500 25780
L54600 25780
L54650 25800
" />
<path d="M55050 26140
L55030 26160
L54980 26180
L54940 26180
L54880 26160
L54840 26120
L54830 26090
L54810 26010
L54810 25950
L54830 25880
L54840 25840
L54880 25800
L54940 25780
L54980 25780
L55030 25800
L55050 25820
" />
<path d="M55230 26180
L55230 25780
" />
<path d="M55450 26180
L55280 25950
" />
<path d="M55450 25780
L55230 26010
" />
<path d="M55910 25760
L55570 26280
" />
<path d="M56050 25780
L56050 26100
L56060 26140
L56080 26160
L56120 26180
L56200 26180
L56240 26160
L56250 26140
L56270 26100
L56270 25780
" />
<path d="M56450 26160
L56500 26180
L56600 26180
L56640 26160
L56660 26140
L56670 26100
L56670 26070
L56660 26030
L56640 26010
L56600 25990
L56520 25970
L56480 25950
L56470 25930
L56450 25900
L56450 25860
L56470 25820
L56480 25800
L56520 25780
L56620 25780
L56670 25800
" />
<path d="M57070 26140
L57050 26160
L57000 26180
L56960 26180
L56900 26160
L56860 26120
L56850 26090
L56830 26010
L56830 25950
L56850 25880
L56860 25840
L56900 25800
L56960 25780
L57000 25780
L57050 25800
L57070 25820
" />
<path d="M57250 26180
L57250 25780
" />
<path d="M57470 26180
L57300 25950
" />
<path d="M57470 25780
L57250 26010
" />
<path d="M57930 25760
L57590 26280
" />
<path d="M58050 26160
L58100 26180
L58200 26180
L58240 26160
L58260 26140
L58270 26100
L58270 26070
L58260 26030
L58240 26010
L58200 25990
L58120 25970
L58080 25950
L58070 25930
L58050 25900
L58050 25860
L58070 25820
L58080 25800
L58120 25780
L58220 25780
L58270 25800
" />
<path d="M58670 26140
L58650 26160
L58600 26180
L58560 26180
L58500 26160
L58460 26120
L58450 26090
L58430 26010
L58430 25950
L58450 25880
L58460 25840
L58500 25800
L58560 25780
L58600 25780
L58650 25800
L58670 25820
" />
<path d="M59040 26180
L58850 26180
L58850 25780
" />
<path d="M59450 25760
L59110 26280
" />
<path d="M59530 25780
L59760 25780
" />
<path d="M59640 26180
L59640 25780
" />
<path d="M59960 25780
L60000 25780
L60040 25800
L60060 25820
L60080 25860
L60090 25930
L60090 26030
L60080 26100
L60060 26140
L60040 26160
L60000 26180
L59960 26180
L59920 26160
L59900 26140
L59890 26100
L59870 26030
L59870 25930
L59890 25860
L59900 25820
L59920 25800
L59960 25780
" />
<path d="M60550 25760
L60210 26280
" />
<path d="M60690 26180
L60690 25780
" />
<path d="M60880 26180
L60880 25780
L61100 26180
L61100 25780
" />
<path d="M61240 25780
L61470 25780
" />
<path d="M61350 26180
L61350 25780
" />
<path d="M61670 25780
L61710 25780
L61750 25800
L61770 25820
L61790 25860
L61800 25930
L61800 26030
L61790 26100
L61770 26140
L61750 26160
L61710 26180
L61670 26180
L61630 26160
L61610 26140
L61600 26100
L61580 26030
L61580 25930
L61600 25860
L61610 25820
L61630 25800
L61670 25780
" />
<path d="M62260 25760
L61920 26280
" />
<path d="M62380 26070
L62570 26070
" />
<path d="M62340 26180
L62470 25780
L62600 26180
" />
<path d="M62740 26180
L62740 25780
L62830 25780
L62890 25800
L62930 25840
L62940 25880
L62960 25950
L62960 26010
L62940 26090
L62930 26120
L62890 26160
L62830 26180
L62740 26180
" />
<path d="M63360 26140
L63340 26160
L63290 26180
L63250 26180
L63190 26160
L63150 26120
L63140 26090
L63120 26010
L63120 25950
L63140 25880
L63150 25840
L63190 25800
L63250 25780
L63290 25780
L63340 25800
L63360 25820
" />
<path d="M63740 26180
L63520 26180
" />
<path d="M63630 26180
L63630 25780
L63590 25840
L63550 25880
L63520 25900
" />
<path d="M64200 25760
L63860 26280
" />
<path d="M64340 26180
L64340 25780
L64490 25780
L64530 25800
L64540 25820
L64560 25860
L64560 25910
L64540 25950
L64530 25970
L64490 25990
L64340 25990
" />
<path d="M64960 26140
L64940 26160
L64890 26180
L64850 26180
L64790 26160
L64750 26120
L64740 26090
L64720 26010
L64720 25950
L64740 25880
L64750 25840
L64790 25800
L64850 25780
L64890 25780
L64940 25800
L64960 25820
" />
<path d="M65140 26180
L65140 25780
" />
<path d="M65330 26180
L65330 25780
L65550 26180
L65550 25780
" />
<path d="M65690 25780
L65920 25780
" />
<path d="M65800 26180
L65800 25780
" />
<path d="M66030 25820
L66050 25800
L66080 25780
L66180 25780
L66220 25800
L66240 25820
L66250 25860
L66250 25900
L66240 25950
L66010 26180
L66250 26180
" />
<path d="M66390 26330
L66410 26310
L66440 26260
L66460 26220
L66480 26160
L66500 26070
L66500 25990
L66480 25900
L66460 25840
L66440 25800
L66410 25740
L66390 25720
" />
</g>
<g style="fill:#840000; fill-opacity:0.0; 
stroke:#840000; stroke-width:60; stroke-opacity:1; 
stroke-linecap:round; stroke-linejoin:round;">
<path d="M51620 25480
L51880 25480
L51710 25880
" />
<path d="M76500 24000
L78000 24000
" />
</g>
<g style="fill:#008484; fill-opacity:0.0; 
stroke:#008484; stroke-width:60; stroke-opacity:1; 
stroke-linecap:round; stroke-linejoin:round;">
<path d="M75000 23780
L75130 24180
L75260 23780
" />
<path d="M75620 24140
L75600 24160
L75550 24180
L75510 24180
L75450 24160
L75410 24120
L75400 24090
L75380 24010
L75380 23950
L75400 23880
L75410 23840
L75450 23800
L75510 23780
L75550 23780
L75600 23800
L75620 23820
" />
<path d="M76020 24140
L76000 24160
L75950 24180
L75910 24180
L75850 24160
L75810 24120
L75800 24090
L75780 24010
L75780 23950
L75800 23880
L75810 23840
L75850 23800
L75910 23780
L75950 23780
L76000 23800
L76020 23820
" />
</g>
<g style="fill:#840000; fill-opacity:0.0; 
stroke:#840000; stroke-width:60; stroke-opacity:1; 
stroke-linecap:round; stroke-linejoin:round;">
<path d="M77210 23650
L77170 23630
L77160 23610
L77140 23580
L77140 23560
L77160 23520
L77170 23500
L77210 23480
L77290 23480
L77330 23500
L77350 23520
L77360 23560
L77360 23580
L77350 23610
L77330 23630
L77290 23650
L77210 23650
L77170 23670
L77160 23690
L77140 23730
L77140 23800
L77160 23840
L77170 23860
L77210 23880
L77290 23880
L77330 23860
L77350 23840
L77360 23800
L77360 23730
L77350 23690
L77330 23670
L77290 23650
" />
</g>
<g style="fill:#008484; fill-opacity:0.0; 
stroke:#008484; stroke-width:60; stroke-opacity:1; 
stroke-linecap:round; stroke-linejoin:round;">
<path d="M52510 22760
L52510 22260
" />
<path d="M53030 22710
L53010 22730
L52940 22760
L52890 22760
L52820 22730
L52770 22680
L52750 22640
L52730 22540
L52730 22470
L52750 22380
L52770 22330
L52820 22280
L52890 22260
L52940 22260
L53010 22280
L53030 22300
" />
<path d="M53510 22760
L53230 22760
" />
<path d="M53370 22760
L53370 22260
L53320 22330
L53270 22380
L53230 22400
" />
<path d="M72370 30610
L72600 30610
" />
<path d="M72320 30760
L72480 30260
L72650 30760
" />
<path d="M72750 30260
L73030 30260
" />
<path d="M72890 30760
L72890 30260
" />
<path d="M73130 30260
L73410 30260
" />
<path d="M73270 30760
L73270 30260
" />
<path d="M73580 30760
L73580 30260
" />
<path d="M73820 30760
L73820 30260
L74100 30760
L74100 30260
" />
<path d="M74430 30520
L74430 30760
" />
<path d="M74270 30260
L74430 30520
L74600 30260
" />
<path d="M74840 30470
L74790 30450
L74770 30420
L74750 30380
L74750 30350
L74770 30300
L74790 30280
L74840 30260
L74940 30260
L74980 30280
L75010 30300
L75030 30350
L75030 30380
L75010 30420
L74980 30450
L74940 30470
L74840 30470
L74790 30490
L74770 30520
L74750 30570
L74750 30660
L74770 30710
L74790 30730
L74840 30760
L74940 30760
L74980 30730
L75010 30710
L75030 30660
L75030 30570
L75010 30520
L74980 30490
L74940 30470
" />
<path d="M75490 30260
L75250 30260
L75230 30490
L75250 30470
L75300 30450
L75420 30450
L75460 30470
L75490 30490
L75510 30540
L75510 30660
L75490 30710
L75460 30730
L75420 30760
L75300 30760
L75250 30730
L75230 30710
" />
<path d="M75730 30570
L76110 30570
" />
<path d="M76350 30760
L76350 30260
L76540 30260
L76590 30280
L76610 30300
L76630 30350
L76630 30420
L76610 30470
L76590 30490
L76540 30520
L76350 30520
" />
</g>
<g style="fill:#840084; fill-opacity:0.0; 
stroke:#840084; stroke-width:60; stroke-opacity:1; 
stroke-linecap:round; stroke-linejoin:round;">
<path d="M62830 29760
L62900 29260
" />
<path d="M62870 29490
L63150 29490
" />
<path d="M63110 29760
L63180 29260
" />
<path d="M63420 29760
L63380 29730
L63360 29710
L63350 29660
L63360 29520
L63390 29470
L63410 29450
L63470 29420
L63540 29420
L63580 29450
L63600 29470
L63620 29520
L63610 29660
L63570 29710
L63550 29730
L63490 29760
L63420 29760
" />
<path d="M64060 29420
L64010 29760
" />
<path d="M63850 29420
L63810 29680
L63830 29730
L63870 29760
L63940 29760
L64000 29730
L64020 29710
" />
<path d="M64240 29730
L64270 29760
L64370 29760
L64430 29730
L64450 29680
L64460 29660
L64440 29610
L64390 29590
L64320 29590
L64280 29570
L64260 29520
L64270 29490
L64290 29450
L64350 29420
L64420 29420
L64460 29450
" />
<path d="M64650 29760
L64700 29420
" />
<path d="M64720 29260
L64690 29280
L64710 29300
L64730 29280
L64720 29260
L64710 29300
" />
<path d="M64940 29420
L64890 29760
" />
<path d="M64930 29470
L64950 29450
L65010 29420
L65080 29420
L65120 29450
L65140 29490
L65100 29760
" />
<path d="M65600 29420
L65540 29830
L65520 29880
L65490 29900
L65440 29920
L65370 29920
L65320 29900
" />
<path d="M65560 29730
L65510 29760
L65410 29760
L65370 29730
L65350 29710
L65340 29660
L65350 29520
L65380 29470
L65400 29450
L65460 29420
L65560 29420
L65590 29450
" />
<path d="M65780 29730
L65810 29760
L65910 29760
L65970 29730
L65990 29680
L66000 29660
L65980 29610
L65930 29590
L65860 29590
L65820 29570
L65800 29520
L65810 29490
L65830 29450
L65890 29420
L65960 29420
L66000 29450
" />
<path d="M66070 29800
L66450 29800
" />
<path d="M66570 29760
L66640 29260
L66760 29260
L66820 29280
L66870 29330
L66880 29380
L66890 29470
L66880 29540
L66850 29640
L66820 29680
L66770 29730
L66690 29760
L66570 29760
" />
<path d="M67070 29760
L67140 29260
" />
<path d="M67310 29760
L67380 29260
L67570 29260
L67610 29280
L67630 29300
L67640 29350
L67640 29420
L67610 29470
L67590 29490
L67530 29520
L67340 29520
" />
<path d="M67820 29710
L67840 29730
L67810 29760
L67800 29730
L67820 29710
L67810 29760
" />
<path d="M67850 29450
L67870 29470
L67850 29490
L67830 29470
L67850 29450
L67850 29490
" />
<path d="M68050 29760
L68120 29260
L68240 29260
L68300 29280
L68350 29330
L68360 29380
L68370 29470
L68360 29540
L68330 29640
L68300 29680
L68250 29730
L68170 29760
L68050 29760
" />
<path d="M68550 29760
L68620 29260
" />
<path d="M68790 29760
L68860 29260
L69050 29260
L69090 29280
L69110 29300
L69120 29350
L69120 29420
L69090 29470
L69070 29490
L69010 29520
L68820 29520
" />
<path d="M69320 29570
L69700 29570
" />
<path d="M70020 29470
L69970 29450
L69960 29420
L69940 29380
L69940 29350
L69970 29300
L69990 29280
L70050 29260
L70150 29260
L70180 29280
L70210 29300
L70220 29350
L70220 29380
L70200 29420
L70160 29450
L70120 29470
L70020 29470
L69970 29490
L69940 29520
L69920 29570
L69910 29660
L69920 29710
L69940 29730
L69980 29760
L70080 29760
L70130 29730
L70160 29710
L70190 29660
L70200 29570
L70180 29520
L70160 29490
L70120 29470
" />
<path d="M70270 29800
L70650 29800
" />
<path d="M70790 29260
L70840 29760
L70990 29400
L71030 29760
L71220 29260
" />
<path d="M71360 29260
L71690 29260
L71410 29760
" />
<path d="M71830 29710
L71850 29730
L71820 29760
L71810 29730
L71830 29710
L71820 29760
" />
<path d="M72340 29260
L72250 29260
L72190 29280
L72170 29300
L72110 29380
L72080 29470
L72060 29660
L72070 29710
L72090 29730
L72130 29760
L72230 29760
L72280 29730
L72310 29710
L72340 29660
L72350 29540
L72340 29490
L72310 29470
L72270 29450
L72170 29450
L72120 29470
L72100 29490
L72070 29540
" />
<path d="M72580 29300
L72600 29280
L72660 29260
L72780 29260
L72810 29280
L72840 29300
L72850 29350
L72850 29400
L72820 29470
L72490 29760
L72800 29760
" />
<path d="M73020 29760
L73070 29420
" />
<path d="M73060 29470
L73080 29450
L73140 29420
L73210 29420
L73250 29450
L73270 29490
L73230 29760
" />
<path d="M73270 29490
L73300 29450
L73350 29420
L73430 29420
L73460 29450
L73490 29490
L73450 29760
" />
<path d="M73690 29760
L73740 29420
" />
<path d="M73730 29470
L73750 29450
L73810 29420
L73880 29420
L73920 29450
L73940 29490
L73900 29760
" />
<path d="M73940 29490
L73970 29450
L74020 29420
L74100 29420
L74130 29450
L74160 29490
L74120 29760
" />
</g>
<g style="fill:#840084; fill-opacity:0.0; 
stroke:#840084; stroke-width:0; stroke-opacity:1; 
stroke-linecap:round; stroke-linejoin:round;">
</g>
<g style="fill:#840000; fill-opacity:0.0; 
stroke:#840000; stroke-width:0; stroke-opacity:1; 
stroke-linecap:round; stroke-linejoin:round;">
</g>
<g style="fill:#840000; fill-opacity:0.0; 
stroke:#840000; stroke-width:60; stroke-opacity:1; 
stroke-linecap:round; stroke-linejoin:round;">
<polyline fill="none;"
points="88000,28000
88000,28500
88500,28500
88000,29000
87500,28500
88000,28500
" /> 
</g>
<g style="fill:#008484; fill-opacity:0.0; 
stroke:#008484; stroke-width:60; stroke-opacity:1; 
stroke-linecap:round; stroke-linejoin:round;">
<path d="M87620 29280
L87570 29260
L87500 29260
L87430 29280
L87380 29330
L87360 29380
L87340 29470
L87340 29540
L87360 29640
L87380 29680
L87430 29730
L87500 29760
L87550 29760
L87620 29730
L87640 29710
L87640 29540
L87550 29540
" />
<path d="M87860 29760
L87860 29260
L88140 29760
L88140 29260
" />
<path d="M88380 29760
L88380 29260
L88500 29260
L88570 29280
L88620 29330
L88640 29380
L88660 29470
L88660 29540
L88640 29640
L88620 29680
L88570 29730
L88500 29760
L88380 29760
" />
</g>
<g style="fill:#008484; fill-opacity:0.0; 
stroke:#008484; stroke-width:0; stroke-opacity:1; 
stroke-linecap:round; stroke-linejoin:round;">
</g>
<g style="fill:#840000; fill-opacity:0.0; 
stroke:#840000; stroke-width:0; stroke-opacity:1; 
stroke-linecap:round; stroke-linejoin:round;">
</g>
<g style="fill:#840000; fill-opacity:0.0; 
stroke:#840000; stroke-width:120; stroke-opacity:1; 
stroke-linecap:round; stroke-linejoin:round;">
<rect x="44000" y="26500" width="2000" height="1000" rx="0" />
<polyline fill="none;"
points="44500,26000
45500,26000
" /> 
<polyline fill="none;"
points="44500,28000
45500,28000
" /> 
</g>
<g style="fill:#840000; fill-opacity:0.0; 
stroke:#840000; stroke-width:60; stroke-opacity:1; 
stroke-linecap:round; stroke-linejoin:round;">
<path d="M45000 26000
L45000 25500
" />
<path d="M45000 28000
L45000 28500
" />
</g>
<g style="fill:#008484; fill-opacity:0.0; 
stroke:#008484; stroke-width:60; stroke-opacity:1; 
stroke-linecap:round; stroke-linejoin:round;">
<path d="M46450 27240
L46690 27240
" />
<path d="M46190 27400
L46450 27240
L46190 27070
" />
<path d="M46690 26640
L46690 26920
" />
<path d="M46690 26780
L46190 26780
L46260 26830
L46310 26880
L46330 26920
" />
<path d="M43230 28120
L43210 28100
L43190 28050
L43190 27930
L43210 27890
L43230 27860
L43280 27840
L43330 27840
L43400 27860
L43690 28150
L43690 27840
" />
<path d="M43190 27530
L43190 27480
L43210 27430
L43230 27410
L43280 27380
L43380 27360
L43500 27360
L43590 27380
L43640 27410
L43660 27430
L43690 27480
L43690 27530
L43660 27570
L43640 27600
L43590 27620
L43500 27640
L43380 27640
L43280 27620
L43230 27600
L43210 27570
L43190 27530
" />
<path d="M43690 27140
L43190 27140
L43540 26970
L43190 26810
L43690 26810
" />
<path d="M43690 26570
L43190 26570
" />
<path d="M43420 26570
L43420 26290
" />
<path d="M43690 26290
L43190 26290
" />
<path d="M43350 26100
L43350 25840
L43690 26100
L43690 25840
" />
</g>
<g style="fill:#008484; fill-opacity:0.0; 
stroke:#008484; stroke-width:0; stroke-opacity:1; 
stroke-linecap:round; stroke-linejoin:round;">
</g>
<g style="fill:#840000; fill-opacity:0.0; 
stroke:#840000; stroke-width:0; stroke-opacity:1; 
stroke-linecap:round; stroke-linejoin:round;">
</g>
<g style="fill:#840000; fill-opacity:0.0; 
stroke:#840000; stroke-width:200; stroke-opacity:1; 
stroke-linecap:round; stroke-linejoin:round;">
<polyline fill="none;"
points="44200,24300
45800,24300
" /> 
<polyline fill="none;"
points="44200,23700
45800,23700
" /> 
</g>
<g style="fill:#840000; fill-opacity:0.0; 
stroke:#840000; stroke-width:60; stroke-opacity:1; 
stroke-linecap:round; stroke-linejoin:round;">
<path d="M45000 23600
L45000 22500
" />
<path d="M45000 24400
L45000 25500
" />
</g>
<g style="fill:#008484; fill-opacity:0.0; 
stroke:#008484; stroke-width:60; stroke-opacity:1; 
stroke-linecap:round; stroke-linejoin:round;">
<path d="M45650 23210
L45630 23230
L45560 23260
L45510 23260
L45440 23230
L45390 23180
L45370 23140
L45350 23040
L45350 22970
L45370 22880
L45390 22830
L45440 22780
L45510 22760
L45560 22760
L45630 22780
L45650 22800
" />
<path d="M46130 23260
L45850 23260
" />
<path d="M45990 23260
L45990 22760
L45940 22830
L45890 22880
L45850 22900
" />
<path d="M45350 24800
L45370 24780
L45420 24760
L45540 24760
L45580 24780
L45610 24800
L45630 24850
L45630 24900
L45610 24970
L45320 25260
L45630 25260
" />
<path d="M45830 24800
L45850 24780
L45900 24760
L46020 24760
L46060 24780
L46090 24800
L46110 24850
L46110 24900
L46090 24970
L45800 25260
L46110 25260
" />
<path d="M46330 24920
L46330 25260
" />
<path d="M46330 24970
L46350 24950
L46400 24920
L46470 24920
L46520 24950
L46540 24990
L46540 25260
" />
<path d="M46950 24990
L46780 24990
" />
<path d="M46780 25260
L46780 24760
L47020 24760
" />
</g>
<g style="fill:#008484; fill-opacity:0.0; 
stroke:#008484; stroke-width:0; stroke-opacity:1; 
stroke-linecap:round; stroke-linejoin:round;">
</g>
<g style="fill:#840000; fill-opacity:0.0; 
stroke:#840000; stroke-width:0; stroke-opacity:1; 
stroke-linecap:round; stroke-linejoin:round;">
</g>
<g style="fill:#840000; fill-opacity:0.0; 
stroke:#840000; stroke-width:200; stroke-opacity:1; 
stroke-linecap:round; stroke-linejoin:round;">
<polyline fill="none;"
points="45800,29700
44200,29700
" /> 
<polyline fill="none;"
points="45800,30300
44200,30300
" /> 
</g>
<g style="fill:#840000; fill-opacity:0.0; 
stroke:#840000; stroke-width:60; stroke-opacity:1; 
stroke-linecap:round; stroke-linejoin:round;">
<path d="M45000 30400
L45000 31500
" />
<path d="M45000 29600
L45000 28500
" />
</g>
<g style="fill:#008484; fill-opacity:0.0; 
stroke:#008484; stroke-width:60; stroke-opacity:1; 
stroke-linecap:round; stroke-linejoin:round;">
<path d="M44170 31140
L44150 31160
L44080 31190
L44030 31190
L43960 31160
L43910 31110
L43890 31070
L43870 30970
L43870 30900
L43890 30810
L43910 30760
L43960 30710
L44030 30690
L44080 30690
L44150 30710
L44170 30730
" />
<path d="M44370 30730
L44390 30710
L44440 30690
L44560 30690
L44600 30710
L44630 30730
L44650 30780
L44650 30830
L44630 30900
L44340 31190
L44650 31190
" />
<path d="M43010 28730
L43030 28710
L43080 28690
L43200 28690
L43240 28710
L43270 28730
L43290 28780
L43290 28830
L43270 28900
L42980 29190
L43290 29190
" />
<path d="M43490 28730
L43510 28710
L43560 28690
L43680 28690
L43720 28710
L43750 28730
L43770 28780
L43770 28830
L43750 28900
L43460 29190
L43770 29190
" />
<path d="M43990 28850
L43990 29190
" />
<path d="M43990 28900
L44010 28880
L44060 28850
L44130 28850
L44180 28880
L44200 28920
L44200 29190
" />
<path d="M44610 28920
L44440 28920
" />
<path d="M44440 29190
L44440 28690
L44680 28690
" />
</g>
<g style="fill:#008484; fill-opacity:0.0; 
stroke:#008484; stroke-width:0; stroke-opacity:1; 
stroke-linecap:round; stroke-linejoin:round;">
</g>
<g style="fill:#840000; fill-opacity:0.0; 
stroke:#840000; stroke-width:0; stroke-opacity:1; 
stroke-linecap:round; stroke-linejoin:round;">
</g>
<g style="fill:#840000; fill-opacity:0.0; 
stroke:#840000; stroke-width:60; stroke-opacity:1; 
stroke-linecap:round; stroke-linejoin:round;">
<polyline fill="none;"
points="45000,22500
45000,22000
44500,22000
45000,21500
45500,22000
45000,22000
" /> 
</g>
<g style="fill:#008484; fill-opacity:0.0; 
stroke:#008484; stroke-width:60; stroke-opacity:1; 
stroke-linecap:round; stroke-linejoin:round;">
<path d="M44620 20710
L44570 20690
L44500 20690
L44430 20710
L44380 20760
L44360 20810
L44340 20900
L44340 20970
L44360 21070
L44380 21110
L44430 21160
L44500 21190
L44550 21190
L44620 21160
L44640 21140
L44640 20970
L44550 20970
" />
<path d="M44860 21190
L44860 20690
L45140 21190
L45140 20690
" />
<path d="M45380 21190
L45380 20690
L45500 20690
L45570 20710
L45620 20760
L45640 20810
L45660 20900
L45660 20970
L45640 21070
L45620 21110
L45570 21160
L45500 21190
L45380 21190
" />
</g>
<g style="fill:#008484; fill-opacity:0.0; 
stroke:#008484; stroke-width:0; stroke-opacity:1; 
stroke-linecap:round; stroke-linejoin:round;">
</g>
<g style="fill:#840000; fill-opacity:0.0; 
stroke:#840000; stroke-width:0; stroke-opacity:1; 
stroke-linecap:round; stroke-linejoin:round;">
</g>
<g style="fill:#840000; fill-opacity:0.0; 
stroke:#840000; stroke-width:60; stroke-opacity:1; 
stroke-linecap:round; stroke-linejoin:round;">
<polyline fill="none;"
points="45000,31500
45000,32000
45500,32000
45000,32500
44500,32000
45000,32000
" /> 
</g>
<g style="fill:#008484; fill-opacity:0.0; 
stroke:#008484; stroke-width:60; stroke-opacity:1; 
stroke-linecap:round; stroke-linejoin:round;">
<path d="M44620 32780
L44570 32760
L44500 32760
L44430 32780
L44380 32830
L44360 32880
L44340 32970
L44340 33040
L44360 33140
L44380 33180
L44430 33230
L44500 33260
L44550 33260
L44620 33230
L44640 33210
L44640 33040
L44550 33040
" />
<path d="M44860 33260
L44860 32760
L45140 33260
L45140 32760
" />
<path d="M45380 33260
L45380 32760
L45500 32760
L45570 32780
L45620 32830
L45640 32880
L45660 32970
L45660 33040
L45640 33140
L45620 33180
L45570 33230
L45500 33260
L45380 33260
" />
</g>
<g style="fill:#008484; fill-opacity:0.0; 
stroke:#008484; stroke-width:0; stroke-opacity:1; 
stroke-linecap:round; stroke-linejoin:round;">
</g>
<g style="fill:#840000; fill-opacity:0.0; 
stroke:#840000; stroke-width:0; stroke-opacity:1; 
stroke-linecap:round; stroke-linejoin:round;">
</g>
<g style="fill:#840000; fill-opacity:0.0; 
stroke:#840000; stroke-width:60; stroke-opacity:1; 
stroke-linecap:round; stroke-linejoin:round;">
<line x1="82100" y1="26100" x2="82100" y2="26300" />
<line x1="82100" y1="26300" x2="83900" y2="26300" />
</g>
<g style="fill:#840000; fill-opacity:1.0; 
stroke:#840000; stroke-width:60; stroke-opacity:1; 
stroke-linecap:round; stroke-linejoin:round;">
<rect x="82100" y="26700" width="1800" height="200" rx="0" />
</g>
<g style="fill:#840000; fill-opacity:0.0; 
stroke:#840000; stroke-width:60; stroke-opacity:1; 
stroke-linecap:round; stroke-linejoin:round;">
<line x1="82100" y1="26100" x2="83900" y2="26100" />
<line x1="83900" y1="26100" x2="83900" y2="26300" />
<polyline fill="none;"
points="82300,25600
82700,25600
" /> 
<polyline fill="none;"
points="82500,25400
82500,25800
" /> 
<path d="M83000 26100
L83000 25000
" />
<path d="M83000 26900
L83000 28000
" />
</g>
<g style="fill:#008484; fill-opacity:0.0; 
stroke:#008484; stroke-width:60; stroke-opacity:1; 
stroke-linecap:round; stroke-linejoin:round;">
<path d="M83650 25710
L83630 25730
L83560 25760
L83510 25760
L83440 25730
L83390 25680
L83370 25640
L83350 25540
L83350 25470
L83370 25380
L83390 25330
L83440 25280
L83510 25260
L83560 25260
L83630 25280
L83650 25300
" />
<path d="M84080 25420
L84080 25760
" />
<path d="M83960 25230
L83850 25590
L84150 25590
" />
<path d="M83580 27420
L83580 27760
" />
<path d="M83460 27230
L83350 27590
L83650 27590
" />
<path d="M83800 27260
L84130 27260
L83920 27760
" />
<path d="M84420 27260
L84470 27260
L84520 27280
L84540 27300
L84570 27350
L84590 27450
L84590 27570
L84570 27660
L84540 27710
L84520 27730
L84470 27760
L84420 27760
L84380 27730
L84350 27710
L84330 27660
L84310 27570
L84310 27450
L84330 27350
L84350 27300
L84380 27280
L84420 27260
" />
<path d="M84810 27420
L84810 27920
" />
<path d="M85050 27680
L85070 27730
L85120 27760
" />
<path d="M84810 27680
L84830 27730
L84880 27760
L84980 27760
L85020 27730
L85050 27680
L85050 27420
" />
<path d="M85500 27490
L85330 27490
" />
<path d="M85330 27760
L85330 27260
L85570 27260
" />
</g>
<g style="fill:#008400; fill-opacity:0.0; 
stroke:#008400; stroke-width:60; stroke-opacity:1; 
stroke-linecap:round; stroke-linejoin:round;">
<path d="M78000 29000
L78000 28000
" />
</g>
<g style="fill:#008400; fill-opacity:0.0; 
stroke:#008400; stroke-width:0; stroke-opacity:1; 
stroke-linecap:round; stroke-linejoin:round;">
</g>
<g style="fill:#008400; fill-opacity:1.0; 
stroke:#008400; stroke-width:100; stroke-opacity:1; 
stroke-linecap:round; stroke-linejoin:round;">
<circle cx="80000" cy="25000" r="200" /> 
</g>
<g style="fill:#008400; fill-opacity:1.0; 
stroke:#008400; stroke-width:0; stroke-opacity:1; 
stroke-linecap:round; stroke-linejoin:round;">
</g>
<g style="fill:#008400; fill-opacity:1.0; 
stroke:#008400; stroke-width:100; stroke-opacity:1; 
stroke-linecap:round; stroke-linejoin:round;">
<circle cx="83000" cy="25000" r="200" /> 
</g>
<g style="fill:#008400; fill-opacity:1.0; 
stroke:#008400; stroke-width:0; stroke-opacity:1; 
stroke-linecap:round; stroke-linejoin:round;">
</g>
<g style="fill:#008400; fill-opacity:1.0; 
stroke:#008400; stroke-width:100; stroke-opacity:1; 
stroke-linecap:round; stroke-linejoin:round;">
<circle cx="83000" cy="28000" r="200" /> 
</g>
<g style="fill:#008400; fill-opacity:1.0; 
stroke:#008400; stroke-width:0; stroke-opacity:1; 
stroke-linecap:round; stroke-linejoin:round;">
</g>
<g style="fill:#008400; fill-opacity:1.0; 
stroke:#008400; stroke-width:100; stroke-opacity:1; 
stroke-linecap:round; stroke-linejoin:round;">
<circle cx="80000" cy="28000" r="200" /> 
</g>
<g style="fill:#008400; fill-opacity:1.0; 
stroke:#008400; stroke-width:60; stroke-opacity:1; 
stroke-linecap:round; stroke-linejoin:round;">
</g>
<g style="fill:#008400; fill-opacity:0.0; 
stroke:#008400; stroke-width:60; stroke-opacity:1; 
stroke-linecap:round; stroke-linejoin:round;">
<path d="M78000 24000
L78000 25000
" />
</g>
<g style="fill:#008400; fill-opacity:0.0; 
stroke:#008400; stroke-width:0; stroke-opacity:1; 
stroke-linecap:round; stroke-linejoin:round;">
</g>
<g style="fill:#840000; fill-opacity:0.0; 
stroke:#840000; stroke-width:0; stroke-opacity:1; 
stroke-linecap:round; stroke-linejoin:round;">
</g>
<g style="fill:#840000; fill-opacity:0.0; 
stroke:#840000; stroke-width:60; stroke-opacity:1; 
stroke-linecap:round; stroke-linejoin:round;">
<rect x="89500" y="26950" width="600" height="100" rx="0" />
<rect x="89500" y="25950" width="600" height="100" rx="0" />
<rect x="89500" y="25500" width="1000" height="2000" rx="0" />
<path d="M89500 26000
L88000 26000
" />
<path d="M88890 25880
L88610 25880
" />
<path d="M88750 25880
L88750 25380
L88700 25450
L88650 25500
L88610 25520
" />
<path d="M89500 27000
L88000 27000
" />
<path d="M88610 26420
L88630 26400
L88680 26380
L88800 26380
L88840 26400
L88870 26420
L88890 26470
L88890 26520
L88870 26590
L88580 26880
L88890 26880
" />
</g>
<g style="fill:#008484; fill-opacity:0.0; 
stroke:#008484; stroke-width:60; stroke-opacity:1; 
stroke-linecap:round; stroke-linejoin:round;">
<path d="M89630 25260
L89630 24760
L89820 24760
L89870 24780
L89890 24800
L89910 24850
L89910 24920
L89890 24970
L89870 24990
L89820 25020
L89630 25020
" />
<path d="M90110 24800
L90130 24780
L90180 24760
L90300 24760
L90340 24780
L90370 24800
L90390 24850
L90390 24900
L90370 24970
L90080 25260
L90390 25260
" />
<path d="M91260 27470
L90760 27470
L90760 27280
L90780 27230
L90800 27210
L90850 27190
L90920 27190
L90970 27210
L90990 27230
L91020 27280
L91020 27470
" />
<path d="M91260 26900
L91230 26950
L91210 26970
L91160 26990
L91020 26990
L90970 26970
L90950 26950
L90920 26900
L90920 26830
L90950 26780
L90970 26760
L91020 26730
L91160 26730
L91210 26760
L91230 26780
L91260 26830
L91260 26900
" />
<path d="M90920 26570
L91260 26470
L91020 26380
L91260 26280
L90920 26190
" />
<path d="M91230 25810
L91260 25860
L91260 25950
L91230 26000
L91180 26020
L90990 26020
L90950 26000
L90920 25950
L90920 25860
L90950 25810
L90990 25790
L91040 25790
L91090 26020
" />
<path d="M91260 25570
L90920 25570
" />
<path d="M91020 25570
L90970 25550
L90950 25520
L90920 25480
L90920 25430
" />
</g>
<g style="fill:#008484; fill-opacity:0.0; 
stroke:#008484; stroke-width:0; stroke-opacity:1; 
stroke-linecap:round; stroke-linejoin:round;">
</g>
<g style="fill:#840000; fill-opacity:0.0; 
stroke:#840000; stroke-width:0; stroke-opacity:1; 
stroke-linecap:round; stroke-linejoin:round;">
</g>
<g style="fill:#840000; fill-opacity:0.0; 
stroke:#840000; stroke-width:60; stroke-opacity:1; 
stroke-linecap:round; stroke-linejoin:round;">
<polyline fill="none;"
points="94500,17000
94500,17500
95000,17500
94500,18000
94000,17500
94500,17500
" /> 
</g>
<g style="fill:#008484; fill-opacity:0.0; 
stroke:#008484; stroke-width:60; stroke-opacity:1; 
stroke-linecap:round; stroke-linejoin:round;">
<path d="M94120 18280
L94070 18260
L94000 18260
L93930 18280
L93880 18330
L93860 18380
L93840 18470
L93840 18540
L93860 18640
L93880 18680
L93930 18730
L94000 18760
L94050 18760
L94120 18730
L94140 18710
L94140 18540
L94050 18540
" />
<path d="M94360 18760
L94360 18260
L94640 18760
L94640 18260
" />
<path d="M94880 18760
L94880 18260
L95000 18260
L95070 18280
L95120 18330
L95140 18380
L95160 18470
L95160 18540
L95140 18640
L95120 18680
L95070 18730
L95000 18760
L94880 18760
" />
</g>
<g style="fill:#008484; fill-opacity:0.0; 
stroke:#008484; stroke-width:0; stroke-opacity:1; 
stroke-linecap:round; stroke-linejoin:round;">
</g>
<g style="fill:#840000; fill-opacity:0.0; 
stroke:#840000; stroke-width:0; stroke-opacity:1; 
stroke-linecap:round; stroke-linejoin:round;">
</g>
<g style="fill:#840000; fill-opacity:0.0; 
stroke:#840000; stroke-width:60; stroke-opacity:1; 
stroke-linecap:round; stroke-linejoin:round;">
<polyline fill="none;"
points="87700,13500
88000,13000
" /> 
<polyline fill="none;"
points="88000,14000
88000,13000
" /> 
<polyline fill="none;"
points="88000,13000
88300,13500
" /> 
</g>
<g style="fill:#008484; fill-opacity:0.0; 
stroke:#008484; stroke-width:60; stroke-opacity:1; 
stroke-linecap:round; stroke-linejoin:round;">
<path d="M87360 12670
L87740 12670
" />
<path d="M87550 12860
L87550 12480
" />
<path d="M88220 12360
L87980 12360
L87960 12590
L87980 12570
L88030 12550
L88150 12550
L88190 12570
L88220 12590
L88240 12640
L88240 12760
L88220 12810
L88190 12830
L88150 12860
L88030 12860
L87980 12830
L87960 12810
" />
<path d="M88390 12360
L88550 12860
L88720 12360
" />
</g>
<g style="fill:#008484; fill-opacity:0.0; 
stroke:#008484; stroke-width:0; stroke-opacity:1; 
stroke-linecap:round; stroke-linejoin:round;">
</g>
<g style="fill:#840000; fill-opacity:0.0; 
stroke:#840000; stroke-width:0; stroke-opacity:1; 
stroke-linecap:round; stroke-linejoin:round;">
</g>
<g style="fill:#840000; fill-opacity:0.0; 
stroke:#840000; stroke-width:60; stroke-opacity:1; 
stroke-linecap:round; stroke-linejoin:round;">
<rect x="89500" y="35950" width="600" height="100" rx="0" />
<rect x="89500" y="34950" width="600" height="100" rx="0" />
<rect x="89500" y="33950" width="600" height="100" rx="0" />
<rect x="89500" y="33500" width="1000" height="3000" rx="0" />
<path d="M89500 34000
L88000 34000
" />
<path d="M88890 33880
L88610 33880
" />
<path d="M88750 33880
L88750 33380
L88700 33450
L88650 33500
L88610 33520
" />
<path d="M89500 35000
L88000 35000
" />
<path d="M88610 34420
L88630 34400
L88680 34380
L88800 34380
L88840 34400
L88870 34420
L88890 34470
L88890 34520
L88870 34590
L88580 34880
L88890 34880
" />
<path d="M89500 36000
L88000 36000
" />
<path d="M88580 35380
L88890 35380
L88720 35570
L88800 35570
L88840 35590
L88870 35610
L88890 35660
L88890 35780
L88870 35830
L88840 35850
L88800 35880
L88650 35880
L88610 35850
L88580 35830
" />
</g>
<g style="fill:#008484; fill-opacity:0.0; 
stroke:#008484; stroke-width:60; stroke-opacity:1; 
stroke-linecap:round; stroke-linejoin:round;">
<path d="M89630 33260
L89630 32760
L89820 32760
L89870 32780
L89890 32800
L89910 32850
L89910 32920
L89890 32970
L89870 32990
L89820 33020
L89630 33020
" />
<path d="M90080 32760
L90390 32760
L90220 32950
L90300 32950
L90340 32970
L90370 32990
L90390 33040
L90390 33160
L90370 33210
L90340 33230
L90300 33260
L90150 33260
L90110 33230
L90080 33210
" />
<path d="M91260 38030
L90760 38030
" />
<path d="M91260 37510
L91020 37670
" />
<path d="M91260 37790
L90760 37790
L90760 37600
L90780 37550
L90800 37530
L90850 37510
L90920 37510
L90970 37530
L90990 37550
L91020 37600
L91020 37790
" />
<path d="M91230 36930
L91260 36860
L91260 36740
L91230 36700
L91210 36670
L91160 36650
L91110 36650
L91070 36670
L91040 36700
L91020 36740
L90990 36840
L90970 36890
L90950 36910
L90900 36930
L90850 36930
L90800 36910
L90780 36890
L90760 36840
L90760 36720
L90780 36650
" />
<path d="M91230 36240
L91260 36290
L91260 36380
L91230 36430
L91180 36450
L90990 36450
L90950 36430
L90920 36380
L90920 36290
L90950 36240
L90990 36220
L91040 36220
L91090 36450
" />
<path d="M90920 36000
L91260 36000
" />
<path d="M90970 36000
L90950 35980
L90920 35930
L90920 35860
L90950 35810
L90990 35790
L91260 35790
" />
<path d="M91230 35570
L91260 35530
L91260 35430
L91230 35380
L91180 35360
L91160 35360
L91110 35380
L91090 35430
L91090 35500
L91070 35550
L91020 35570
L90990 35570
L90950 35550
L90920 35500
L90920 35430
L90950 35380
" />
<path d="M91260 35080
L91230 35130
L91210 35150
L91160 35170
L91020 35170
L90970 35150
L90950 35130
L90920 35080
L90920 35010
L90950 34960
L90970 34940
L91020 34910
L91160 34910
L91210 34940
L91230 34960
L91260 35010
L91260 35080
" />
<path d="M91260 34700
L90920 34700
" />
<path d="M91020 34700
L90970 34680
L90950 34650
L90920 34610
L90920 34560
" />
<path d="M90760 34060
L90760 33750
L90950 33920
L90950 33840
L90970 33800
L90990 33770
L91040 33750
L91160 33750
L91210 33770
L91230 33800
L91260 33840
L91260 33990
L91230 34030
L91210 34060
" />
<path d="M90970 33460
L90950 33510
L90920 33530
L90880 33550
L90850 33550
L90800 33530
L90780 33510
L90760 33460
L90760 33360
L90780 33320
L90800 33290
L90850 33270
L90880 33270
L90920 33290
L90950 33320
L90970 33360
L90970 33460
L90990 33510
L91020 33530
L91070 33550
L91160 33550
L91210 33530
L91230 33510
L91260 33460
L91260 33360
L91230 33320
L91210 33290
L91160 33270
L91070 33270
L91020 33290
L90990 33320
L90970 33360
" />
<path d="M91260 33050
L90760 33050
" />
<path d="M91070 33000
L91260 32860
" />
<path d="M90920 32860
L91110 33050
" />
<path d="M91260 32650
L90760 32650
" />
<path d="M90990 32650
L90990 32370
" />
<path d="M91260 32370
L90760 32370
" />
<path d="M90920 32180
L90920 31920
L91260 32180
L91260 31920
" />
</g>
<g style="fill:#008484; fill-opacity:0.0; 
stroke:#008484; stroke-width:0; stroke-opacity:1; 
stroke-linecap:round; stroke-linejoin:round;">
</g>
<g style="fill:#840000; fill-opacity:0.0; 
stroke:#840000; stroke-width:0; stroke-opacity:1; 
stroke-linecap:round; stroke-linejoin:round;">
</g>
<g style="fill:#840000; fill-opacity:0.0; 
stroke:#840000; stroke-width:60; stroke-opacity:1; 
stroke-linecap:round; stroke-linejoin:round;">
<polyline fill="none;"
points="83200,36500
83500,36000
" /> 
<polyline fill="none;"
points="83500,37000
83500,36000
" /> 
<polyline fill="none;"
points="83500,36000
83800,36500
" /> 
</g>
<g style="fill:#008484; fill-opacity:0.0; 
stroke:#008484; stroke-width:60; stroke-opacity:1; 
stroke-linecap:round; stroke-linejoin:round;">
<path d="M82860 35670
L83240 35670
" />
<path d="M83050 35860
L83050 35480
" />
<path d="M83720 35360
L83480 35360
L83460 35590
L83480 35570
L83530 35550
L83650 35550
L83690 35570
L83720 35590
L83740 35640
L83740 35760
L83720 35810
L83690 35830
L83650 35860
L83530 35860
L83480 35830
L83460 35810
" />
<path d="M83890 35360
L84050 35860
L84220 35360
" />
</g>
<g style="fill:#008484; fill-opacity:0.0; 
stroke:#008484; stroke-width:0; stroke-opacity:1; 
stroke-linecap:round; stroke-linejoin:round;">
</g>
<g style="fill:#840000; fill-opacity:0.0; 
stroke:#840000; stroke-width:0; stroke-opacity:1; 
stroke-linecap:round; stroke-linejoin:round;">
</g>
<g style="fill:#840000; fill-opacity:0.0; 
stroke:#840000; stroke-width:60; stroke-opacity:1; 
stroke-linecap:round; stroke-linejoin:round;">
<polyline fill="none;"
points="85500,34000
85500,34500
86000,34500
85500,35000
85000,34500
85500,34500
" /> 
</g>
<g style="fill:#008484; fill-opacity:0.0; 
stroke:#008484; stroke-width:60; stroke-opacity:1; 
stroke-linecap:round; stroke-linejoin:round;">
<path d="M85120 35280
L85070 35260
L85000 35260
L84930 35280
L84880 35330
L84860 35380
L84840 35470
L84840 35540
L84860 35640
L84880 35680
L84930 35730
L85000 35760
L85050 35760
L85120 35730
L85140 35710
L85140 35540
L85050 35540
" />
<path d="M85360 35760
L85360 35260
L85640 35760
L85640 35260
" />
<path d="M85880 35760
L85880 35260
L86000 35260
L86070 35280
L86120 35330
L86140 35380
L86160 35470
L86160 35540
L86140 35640
L86120 35680
L86070 35730
L86000 35760
L85880 35760
" />
</g>
<g style="fill:#008400; fill-opacity:0.0; 
stroke:#008400; stroke-width:60; stroke-opacity:1; 
stroke-linecap:round; stroke-linejoin:round;">
<path d="M51000 26000
L49000 26000
" />
<path d="M78000 25000
L88000 25000
" />
<path d="M88000 25000
L88000 26000
" />
<path d="M78000 28000
L88000 28000
" />
<path d="M88000 28000
L88000 27000
" />
</g>
<g style="fill:#008400; fill-opacity:0.0; 
stroke:#008400; stroke-width:0; stroke-opacity:1; 
stroke-linecap:round; stroke-linejoin:round;">
</g>
<g style="fill:#008400; fill-opacity:1.0; 
stroke:#008400; stroke-width:100; stroke-opacity:1; 
stroke-linecap:round; stroke-linejoin:round;">
<circle cx="88000" cy="25000" r="200" /> 
</g>
<g style="fill:#008400; fill-opacity:1.0; 
stroke:#008400; stroke-width:0; stroke-opacity:1; 
stroke-linecap:round; stroke-linejoin:round;">
</g>
<g style="fill:#008400; fill-opacity:1.0; 
stroke:#008400; stroke-width:100; stroke-opacity:1; 
stroke-linecap:round; stroke-linejoin:round;">
<circle cx="88000" cy="28000" r="200" /> 
</g>
<g style="fill:#008400; fill-opacity:1.0; 
stroke:#008400; stroke-width:60; stroke-opacity:1; 
stroke-linecap:round; stroke-linejoin:round;">
</g>
<g style="fill:#008400; fill-opacity:0.0; 
stroke:#008400; stroke-width:60; stroke-opacity:1; 
stroke-linecap:round; stroke-linejoin:round;">
<path d="M45000 25500
L47500 25500
" />
<path d="M47500 25500
L47500 27000
" />
<path d="M47500 27000
L51000 27000
" />
<path d="M45000 28500
L47500 28500
" />
<path d="M47500 28500
L47500 28000
" />
<path d="M47500 28000
L51000 28000
" />
</g>
<g style="fill:#008400; fill-opacity:0.0; 
stroke:#008400; stroke-width:0; stroke-opacity:1; 
stroke-linecap:round; stroke-linejoin:round;">
</g>
<g style="fill:#008400; fill-opacity:1.0; 
stroke:#008400; stroke-width:100; stroke-opacity:1; 
stroke-linecap:round; stroke-linejoin:round;">
<circle cx="45000" cy="25500" r="200" /> 
</g>
<g style="fill:#008400; fill-opacity:1.0; 
stroke:#008400; stroke-width:0; stroke-opacity:1; 
stroke-linecap:round; stroke-linejoin:round;">
</g>
<g style="fill:#008400; fill-opacity:1.0; 
stroke:#008400; stroke-width:100; stroke-opacity:1; 
stroke-linecap:round; stroke-linejoin:round;">
<circle cx="45000" cy="28500" r="200" /> 
</g>
<g style="fill:#008400; fill-opacity:1.0; 
stroke:#008400; stroke-width:0; stroke-opacity:1; 
stroke-linecap:round; stroke-linejoin:round;">
</g>
<g style="fill:#840000; fill-opacity:1.0; 
stroke:#840000; stroke-width:0; stroke-opacity:1; 
stroke-linecap:round; stroke-linejoin:round;">
</g>
<g style="fill:#840000; fill-opacity:1.0; 
stroke:#840000; stroke-width:60; stroke-opacity:1; 
stroke-linecap:round; stroke-linejoin:round;">
</g>
<g style="fill:#840000; fill-opacity:0.0; 
stroke:#840000; stroke-width:60; stroke-opacity:1; 
stroke-linecap:round; stroke-linejoin:round;">
<path d="M85500 25000
L85500 25000
" />
<polyline fill="none;"
points="85500,25000
85500,24500
84750,24000
85500,23500
86250,24000
85500,24500
" /> 
</g>
<g style="fill:#008484; fill-opacity:0.0; 
stroke:#008484; stroke-width:60; stroke-opacity:1; 
stroke-linecap:round; stroke-linejoin:round;">
<path d="M83770 23460
L83770 22960
L83960 22960
L84010 22980
L84030 23000
L84050 23050
L84050 23120
L84030 23170
L84010 23190
L83960 23220
L83770 23220
" />
<path d="M84220 22960
L84340 23460
L84440 23100
L84530 23460
L84650 22960
" />
<path d="M85120 23460
L84960 23220
" />
<path d="M84840 23460
L84840 22960
L85030 22960
L85080 22980
L85100 23000
L85120 23050
L85120 23120
L85100 23170
L85080 23190
L85030 23220
L84840 23220
" />
<path d="M85220 23500
L85600 23500
" />
<path d="M85890 23190
L85720 23190
" />
<path d="M85720 23460
L85720 22960
L85960 22960
" />
<path d="M86390 23460
L86150 23460
L86150 22960
" />
<path d="M86530 23310
L86760 23310
" />
<path d="M86480 23460
L86640 22960
L86810 23460
" />
<path d="M87240 22980
L87190 22960
L87120 22960
L87050 22980
L87000 23030
L86980 23080
L86960 23170
L86960 23240
L86980 23340
L87000 23380
L87050 23430
L87120 23460
L87170 23460
L87240 23430
L87260 23410
L87260 23240
L87170 23240
" />
</g>
<g style="fill:#008484; fill-opacity:0.0; 
stroke:#008484; stroke-width:0; stroke-opacity:1; 
stroke-linecap:round; stroke-linejoin:round;">
</g>
<g style="fill:#008400; fill-opacity:0.0; 
stroke:#008400; stroke-width:0; stroke-opacity:1; 
stroke-linecap:round; stroke-linejoin:round;">
</g>
<g style="fill:#008400; fill-opacity:1.0; 
stroke:#008400; stroke-width:100; stroke-opacity:1; 
stroke-linecap:round; stroke-linejoin:round;">
<circle cx="85500" cy="25000" r="200" /> 
</g>
<g style="fill:#008400; fill-opacity:1.0; 
stroke:#008400; stroke-width:0; stroke-opacity:1; 
stroke-linecap:round; stroke-linejoin:round;">
</g>
<g style="fill:#840000; fill-opacity:1.0; 
stroke:#840000; stroke-width:0; stroke-opacity:1; 
stroke-linecap:round; stroke-linejoin:round;">
</g>
<g style="fill:#840000; fill-opacity:0.0; 
stroke:#840000; stroke-width:60; stroke-opacity:1; 
stroke-linecap:round; stroke-linejoin:round;">
<polyline fill="none;"
points="87700,24500
88000,24000
" /> 
<polyline fill="none;"
points="88000,25000
88000,24000
" /> 
<polyline fill="none;"
points="88000,24000
88300,24500
" /> 
</g>
<g style="fill:#008484; fill-opacity:0.0; 
stroke:#008484; stroke-width:60; stroke-opacity:1; 
stroke-linecap:round; stroke-linejoin:round;">
<path d="M87360 23670
L87740 23670
" />
<path d="M87550 23860
L87550 23480
" />
<path d="M88220 23360
L87980 23360
L87960 23590
L87980 23570
L88030 23550
L88150 23550
L88190 23570
L88220 23590
L88240 23640
L88240 23760
L88220 23810
L88190 23830
L88150 23860
L88030 23860
L87980 23830
L87960 23810
" />
<path d="M88390 23360
L88550 23860
L88720 23360
" />
</g>
<g style="fill:#008484; fill-opacity:0.0; 
stroke:#008484; stroke-width:0; stroke-opacity:1; 
stroke-linecap:round; stroke-linejoin:round;">
</g>
<g style="fill:#840000; fill-opacity:0.0; 
stroke:#840000; stroke-width:0; stroke-opacity:1; 
stroke-linecap:round; stroke-linejoin:round;">
</g>
<g style="fill:#840000; fill-opacity:0.0; 
stroke:#840000; stroke-width:60; stroke-opacity:1; 
stroke-linecap:round; stroke-linejoin:round;">
<path d="M85500 28000
L85500 28000
" />
<polyline fill="none;"
points="85500,28000
85500,28500
86250,29000
85500,29500
84750,29000
85500,28500
" /> 
</g>
<g style="fill:#008484; fill-opacity:0.0; 
stroke:#008484; stroke-width:60; stroke-opacity:1; 
stroke-linecap:round; stroke-linejoin:round;">
<path d="M83760 29990
L83760 29490
L83950 29490
L84000 29510
L84020 29530
L84040 29580
L84040 29650
L84020 29700
L84000 29720
L83950 29750
L83760 29750
" />
<path d="M84210 29490
L84330 29990
L84430 29630
L84520 29990
L84640 29490
" />
<path d="M85110 29990
L84950 29750
" />
<path d="M84830 29990
L84830 29490
L85020 29490
L85070 29510
L85090 29530
L85110 29580
L85110 29650
L85090 29700
L85070 29720
L85020 29750
L84830 29750
" />
<path d="M85210 30030
L85590 30030
" />
<path d="M85880 29720
L85710 29720
" />
<path d="M85710 29990
L85710 29490
L85950 29490
" />
<path d="M86380 29990
L86140 29990
L86140 29490
" />
<path d="M86520 29840
L86750 29840
" />
<path d="M86470 29990
L86630 29490
L86800 29990
" />
<path d="M87230 29510
L87180 29490
L87110 29490
L87040 29510
L86990 29560
L86970 29610
L86950 29700
L86950 29770
L86970 29870
L86990 29910
L87040 29960
L87110 29990
L87160 29990
L87230 29960
L87250 29940
L87250 29770
L87160 29770
" />
</g>
<g style="fill:#008484; fill-opacity:0.0; 
stroke:#008484; stroke-width:0; stroke-opacity:1; 
stroke-linecap:round; stroke-linejoin:round;">
</g>
<g style="fill:#008400; fill-opacity:0.0; 
stroke:#008400; stroke-width:0; stroke-opacity:1; 
stroke-linecap:round; stroke-linejoin:round;">
</g>
<g style="fill:#008400; fill-opacity:1.0; 
stroke:#008400; stroke-width:100; stroke-opacity:1; 
stroke-linecap:round; stroke-linejoin:round;">
<circle cx="85500" cy="28000" r="200" /> 
</g>
<g style="fill:#008400; fill-opacity:1.0; 
stroke:#008400; stroke-width:0; stroke-opacity:1; 
stroke-linecap:round; stroke-linejoin:round;">
</g>
<g style="fill:#840000; fill-opacity:1.0; 
stroke:#840000; stroke-width:0; stroke-opacity:1; 
stroke-linecap:round; stroke-linejoin:round;">
</g>
<g style="fill:#840000; fill-opacity:0.0; 
stroke:#840000; stroke-width:60; stroke-opacity:1; 
stroke-linecap:round; stroke-linejoin:round;">
<rect x="89500" y="17950" width="500" height="100" rx="0" />
<rect x="89500" y="16950" width="500" height="100" rx="0" />
<rect x="89500" y="15950" width="500" height="100" rx="0" />
<rect x="89500" y="14950" width="500" height="100" rx="0" />
<rect x="89500" y="13950" width="500" height="100" rx="0" />
<rect x="89500" y="13500" width="2000" height="5000" rx="0" />
<rect x="91000" y="17950" width="500" height="100" rx="0" />
<rect x="91000" y="16950" width="500" height="100" rx="0" />
<rect x="91000" y="15950" width="500" height="100" rx="0" />
<rect x="91000" y="14950" width="500" height="100" rx="0" />
<rect x="91000" y="13950" width="500" height="100" rx="0" />
<path d="M89500 14000
L88000 14000
" />
<path d="M88890 13880
L88610 13880
" />
<path d="M88750 13880
L88750 13380
L88700 13450
L88650 13500
L88610 13520
" />
<path d="M91500 14000
L93000 14000
" />
<path d="M92110 13420
L92130 13400
L92180 13380
L92300 13380
L92340 13400
L92370 13420
L92390 13470
L92390 13520
L92370 13590
L92080 13880
L92390 13880
" />
<path d="M89500 15000
L88000 15000
" />
<path d="M88580 14380
L88890 14380
L88720 14570
L88800 14570
L88840 14590
L88870 14610
L88890 14660
L88890 14780
L88870 14830
L88840 14850
L88800 14880
L88650 14880
L88610 14850
L88580 14830
" />
<path d="M91500 15000
L93000 15000
" />
<path d="M92340 14540
L92340 14880
" />
<path d="M92220 14350
L92110 14710
L92410 14710
" />
<path d="M89500 16000
L88000 16000
" />
<path d="M88870 15380
L88630 15380
L88610 15610
L88630 15590
L88680 15570
L88800 15570
L88840 15590
L88870 15610
L88890 15660
L88890 15780
L88870 15830
L88840 15850
L88800 15880
L88680 15880
L88630 15850
L88610 15830
" />
<path d="M91500 16000
L93000 16000
" />
<path d="M92340 15380
L92250 15380
L92200 15400
L92180 15420
L92130 15500
L92110 15590
L92110 15780
L92130 15830
L92150 15850
L92200 15880
L92300 15880
L92340 15850
L92370 15830
L92390 15780
L92390 15660
L92370 15610
L92340 15590
L92300 15570
L92200 15570
L92150 15590
L92130 15610
L92110 15660
" />
<path d="M89500 17000
L88000 17000
" />
<path d="M88580 16380
L88910 16380
L88700 16880
" />
<path d="M91500 17000
L93000 17000
" />
<path d="M92200 16590
L92150 16570
L92130 16540
L92110 16500
L92110 16470
L92130 16420
L92150 16400
L92200 16380
L92300 16380
L92340 16400
L92370 16420
L92390 16470
L92390 16500
L92370 16540
L92340 16570
L92300 16590
L92200 16590
L92150 16610
L92130 16640
L92110 16690
L92110 16780
L92130 16830
L92150 16850
L92200 16880
L92300 16880
L92340 16850
L92370 16830
L92390 16780
L92390 16690
L92370 16640
L92340 16610
L92300 16590
" />
<path d="M89500 18000
L88000 18000
" />
<path d="M88650 17880
L88750 17880
L88800 17850
L88820 17830
L88870 17760
L88890 17660
L88890 17470
L88870 17420
L88840 17400
L88800 17380
L88700 17380
L88650 17400
L88630 17420
L88610 17470
L88610 17590
L88630 17640
L88650 17660
L88700 17690
L88800 17690
L88840 17660
L88870 17640
L88890 17590
" />
<path d="M91500 18000
L93000 18000
" />
<path d="M92150 17880
L91870 17880
" />
<path d="M92010 17880
L92010 17380
L91960 17450
L91910 17500
L91870 17520
" />
<path d="M92460 17380
L92510 17380
L92560 17400
L92580 17420
L92610 17470
L92630 17570
L92630 17690
L92610 17780
L92580 17830
L92560 17850
L92510 17880
L92460 17880
L92420 17850
L92390 17830
L92370 17780
L92350 17690
L92350 17570
L92370 17470
L92390 17420
L92420 17400
L92460 17380
" />
</g>
<g style="fill:#008484; fill-opacity:0.0; 
stroke:#008484; stroke-width:60; stroke-opacity:1; 
stroke-linecap:round; stroke-linejoin:round;">
<path d="M90130 13260
L90130 12760
L90320 12760
L90370 12780
L90390 12800
L90410 12850
L90410 12920
L90390 12970
L90370 12990
L90320 13020
L90130 13020
" />
<path d="M90890 13260
L90610 13260
" />
<path d="M90750 13260
L90750 12760
L90700 12830
L90650 12880
L90610 12900
" />
<path d="M89090 18760
L89210 19260
L89310 18900
L89400 19260
L89520 18760
" />
<path d="M89690 19230
L89760 19260
L89880 19260
L89920 19230
L89950 19210
L89970 19160
L89970 19110
L89950 19070
L89920 19040
L89880 19020
L89780 18990
L89730 18970
L89710 18950
L89690 18900
L89690 18850
L89710 18800
L89730 18780
L89780 18760
L89900 18760
L89970 18780
" />
<path d="M90170 18800
L90190 18780
L90240 18760
L90360 18760
L90400 18780
L90430 18800
L90450 18850
L90450 18900
L90430 18970
L90140 19260
L90450 19260
" />
<path d="M90740 18970
L90690 18950
L90670 18920
L90650 18880
L90650 18850
L90670 18800
L90690 18780
L90740 18760
L90840 18760
L90880 18780
L90910 18800
L90930 18850
L90930 18880
L90910 18920
L90880 18950
L90840 18970
L90740 18970
L90690 18990
L90670 19020
L90650 19070
L90650 19160
L90670 19210
L90690 19230
L90740 19260
L90840 19260
L90880 19230
L90910 19210
L90930 19160
L90930 19070
L90910 19020
L90880 18990
L90840 18970
" />
<path d="M91410 19260
L91130 19260
" />
<path d="M91270 19260
L91270 18760
L91220 18830
L91170 18880
L91130 18900
" />
<path d="M91610 18800
L91630 18780
L91680 18760
L91800 18760
L91840 18780
L91870 18800
L91890 18850
L91890 18900
L91870 18970
L91580 19260
L91890 19260
" />
</g>
<g style="fill:#008484; fill-opacity:0.0; 
stroke:#008484; stroke-width:0; stroke-opacity:1; 
stroke-linecap:round; stroke-linejoin:round;">
</g>
<g style="fill:#008400; fill-opacity:0.0; 
stroke:#008400; stroke-width:0; stroke-opacity:1; 
stroke-linecap:round; stroke-linejoin:round;">
</g>
<g style="fill:#008400; fill-opacity:1.0; 
stroke:#008400; stroke-width:100; stroke-opacity:1; 
stroke-linecap:round; stroke-linejoin:round;">
<circle cx="93000" cy="16000" r="200" /> 
</g>
<g style="fill:#008400; fill-opacity:1.0; 
stroke:#008400; stroke-width:0; stroke-opacity:1; 
stroke-linecap:round; stroke-linejoin:round;">
</g>
<g style="fill:#008400; fill-opacity:1.0; 
stroke:#008400; stroke-width:100; stroke-opacity:1; 
stroke-linecap:round; stroke-linejoin:round;">
<circle cx="93000" cy="15000" r="200" /> 
</g>
<g style="fill:#008400; fill-opacity:1.0; 
stroke:#008400; stroke-width:0; stroke-opacity:1; 
stroke-linecap:round; stroke-linejoin:round;">
</g>
<g style="fill:#008400; fill-opacity:1.0; 
stroke:#008400; stroke-width:100; stroke-opacity:1; 
stroke-linecap:round; stroke-linejoin:round;">
<circle cx="93000" cy="17000" r="200" /> 
</g>
<g style="fill:#008400; fill-opacity:1.0; 
stroke:#008400; stroke-width:0; stroke-opacity:1; 
stroke-linecap:round; stroke-linejoin:round;">
</g>
<g style="fill:#008400; fill-opacity:1.0; 
stroke:#008400; stroke-width:100; stroke-opacity:1; 
stroke-linecap:round; stroke-linejoin:round;">
<circle cx="88000" cy="16000" r="200" /> 
</g>
<g style="fill:#008400; fill-opacity:1.0; 
stroke:#008400; stroke-width:0; stroke-opacity:1; 
stroke-linecap:round; stroke-linejoin:round;">
</g>
<g style="fill:#008400; fill-opacity:1.0; 
stroke:#008400; stroke-width:100; stroke-opacity:1; 
stroke-linecap:round; stroke-linejoin:round;">
<circle cx="88000" cy="15000" r="200" /> 
</g>
<g style="fill:#008400; fill-opacity:1.0; 
stroke:#008400; stroke-width:60; stroke-opacity:1; 
stroke-linecap:round; stroke-linejoin:round;">
</g>
<g style="fill:#008400; fill-opacity:0.0; 
stroke:#008400; stroke-width:60; stroke-opacity:1; 
stroke-linecap:round; stroke-linejoin:round;">
<path d="M88000 14000
L88000 17000
" />
<path d="M93000 14000
L93000 17000
" />
<path d="M93000 17000
L94500 17000
" />
<path d="M51000 25000
L49000 25000
" />
<path d="M93000 19500
L93000 18000
" />
</g>
<g style="fill:#000084; fill-opacity:0.0; 
stroke:#000084; stroke-width:60; stroke-opacity:1; 
stroke-linecap:round; stroke-linejoin:round;">
<path d="M50760 28760
L51240 29240
" />
<path d="M51240 28760
L50760 29240
" />
</g>
<g style="fill:#008400; fill-opacity:0.0; 
stroke:#008400; stroke-width:60; stroke-opacity:1; 
stroke-linecap:round; stroke-linejoin:round;">
<path d="M49000 25000
L49000 18000
" />
<path d="M49000 18000
L88000 18000
" />
</g>
<g style="fill:#000000; fill-opacity:0.0; 
stroke:#000000; stroke-width:60; stroke-opacity:1; 
stroke-linecap:round; stroke-linejoin:round;">
<path d="M54090 18770
L54230 19370
L54340 18940
L54460 19370
L54600 18770
" />
<path d="M54800 19340
L54890 19370
L55030 19370
L55090 19340
L55120 19310
L55150 19260
L55150 19200
L55120 19140
L55090 19110
L55030 19090
L54920 19060
L54860 19030
L54830 19000
L54800 18940
L54800 18890
L54830 18830
L54860 18800
L54920 18770
L55060 18770
L55150 18800
" />
<path d="M55370 18830
L55400 18800
L55460 18770
L55600 18770
L55660 18800
L55690 18830
L55720 18890
L55720 18940
L55690 19030
L55350 19370
L55720 19370
" />
<path d="M56060 19030
L56000 19000
L55970 18970
L55940 18910
L55940 18890
L55970 18830
L56000 18800
L56060 18770
L56170 18770
L56230 18800
L56260 18830
L56290 18890
L56290 18910
L56260 18970
L56230 19000
L56170 19030
L56060 19030
L56000 19060
L55970 19090
L55940 19140
L55940 19260
L55970 19310
L56000 19340
L56060 19370
L56170 19370
L56230 19340
L56260 19310
L56290 19260
L56290 19140
L56260 19090
L56230 19060
L56170 19030
" />
<path d="M56860 19370
L56510 19370
" />
<path d="M56690 19370
L56690 18770
L56630 18860
L56570 18910
L56510 18940
" />
<path d="M57080 18830
L57110 18800
L57170 18770
L57310 18770
L57370 18800
L57400 18830
L57430 18890
L57430 18940
L57400 19030
L57060 19370
L57430 19370
" />
<path d="M57540 19430
L58000 19430
" />
<path d="M58140 19370
L58140 18770
L58290 18770
L58370 18800
L58430 18860
L58460 18910
L58490 19030
L58490 19110
L58460 19230
L58430 19290
L58370 19340
L58290 19370
L58140 19370
" />
<path d="M59000 19370
L59000 19060
L58970 19000
L58910 18970
L58800 18970
L58740 19000
" />
<path d="M59000 19340
L58940 19370
L58800 19370
L58740 19340
L58710 19290
L58710 19230
L58740 19170
L58800 19140
L58940 19140
L59000 19110
" />
<path d="M59200 18970
L59430 18970
" />
<path d="M59280 18770
L59280 19290
L59310 19340
L59370 19370
L59430 19370
" />
<path d="M59880 19370
L59880 19060
L59850 19000
L59790 18970
L59680 18970
L59620 19000
" />
<path d="M59880 19340
L59820 19370
L59680 19370
L59620 19340
L59590 19290
L59590 19230
L59620 19170
L59680 19140
L59820 19140
L59880 19110
" />
<path d="M54140 17870
L54140 17270
L54290 17270
L54370 17300
L54430 17360
L54460 17410
L54490 17530
L54490 17610
L54460 17730
L54430 17790
L54370 17840
L54290 17870
L54140 17870
" />
<path d="M54970 17840
L54910 17870
L54800 17870
L54740 17840
L54710 17790
L54710 17560
L54740 17500
L54800 17470
L54910 17470
L54970 17500
L55000 17560
L55000 17610
L54710 17670
" />
<path d="M55250 17870
L55250 17270
" />
<path d="M55250 17500
L55310 17470
L55420 17470
L55480 17500
L55510 17530
L55540 17590
L55540 17760
L55510 17810
L55480 17840
L55420 17870
L55310 17870
L55250 17840
" />
<path d="M56050 17470
L56050 17870
" />
<path d="M55790 17470
L55790 17790
L55820 17840
L55880 17870
L55960 17870
L56020 17840
L56050 17810
" />
<path d="M56590 17470
L56590 17960
L56560 18010
L56530 18040
L56480 18070
L56390 18070
L56330 18040
" />
<path d="M56590 17840
L56530 17870
L56420 17870
L56360 17840
L56330 17810
L56300 17760
L56300 17590
L56330 17530
L56360 17500
L56420 17470
L56530 17470
L56590 17500
" />
</g>
<g style="fill:#000000; fill-opacity:0.0; 
stroke:#000000; stroke-width:0; stroke-opacity:1; 
stroke-linecap:round; stroke-linejoin:round;">
</g>
<g style="fill:#840000; fill-opacity:0.0; 
stroke:#840000; stroke-width:0; stroke-opacity:1; 
stroke-linecap:round; stroke-linejoin:round;">
</g>
<g style="fill:#840000; fill-opacity:0.0; 
stroke:#840000; stroke-width:60; stroke-opacity:1; 
stroke-linecap:round; stroke-linejoin:round;">
<line x1="79100" y1="26100" x2="79100" y2="26300" />
<line x1="79100" y1="26300" x2="80900" y2="26300" />
</g>
<g style="fill:#840000; fill-opacity:1.0; 
stroke:#840000; stroke-width:60; stroke-opacity:1; 
stroke-linecap:round; stroke-linejoin:round;">
<rect x="79100" y="26700" width="1800" height="200" rx="0" />
</g>
<g style="fill:#840000; fill-opacity:0.0; 
stroke:#840000; stroke-width:60; stroke-opacity:1; 
stroke-linecap:round; stroke-linejoin:round;">
<line x1="79100" y1="26100" x2="80900" y2="26100" />
<line x1="80900" y1="26100" x2="80900" y2="26300" />
<polyline fill="none;"
points="79300,25600
79700,25600
" /> 
<polyline fill="none;"
points="79500,25400
79500,25800
" /> 
<path d="M80000 26100
L80000 25000
" />
<path d="M80000 26900
L80000 28000
" />
</g>
<g style="fill:#008484; fill-opacity:0.0; 
stroke:#008484; stroke-width:60; stroke-opacity:1; 
stroke-linecap:round; stroke-linejoin:round;">
<path d="M80650 25710
L80630 25730
L80560 25760
L80510 25760
L80440 25730
L80390 25680
L80370 25640
L80350 25540
L80350 25470
L80370 25380
L80390 25330
L80440 25280
L80510 25260
L80560 25260
L80630 25280
L80650 25300
" />
<path d="M80820 25260
L81130 25260
L80960 25450
L81040 25450
L81080 25470
L81110 25490
L81130 25540
L81130 25660
L81110 25710
L81080 25730
L81040 25760
L80890 25760
L80850 25730
L80820 25710
" />
<path d="M80630 27760
L80350 27760
" />
<path d="M80490 27760
L80490 27260
L80440 27330
L80390 27380
L80350 27400
" />
<path d="M80940 27260
L80990 27260
L81040 27280
L81060 27300
L81090 27350
L81110 27450
L81110 27570
L81090 27660
L81060 27710
L81040 27730
L80990 27760
L80940 27760
L80900 27730
L80870 27710
L80850 27660
L80830 27570
L80830 27450
L80850 27350
L80870 27300
L80900 27280
L80940 27260
" />
<path d="M81330 27420
L81330 27920
" />
<path d="M81570 27680
L81590 27730
L81640 27760
" />
<path d="M81330 27680
L81350 27730
L81400 27760
L81500 27760
L81540 27730
L81570 27680
L81570 27420
" />
<path d="M82020 27490
L81850 27490
" />
<path d="M81850 27760
L81850 27260
L82090 27260
" />
</g>
<g style="fill:#008400; fill-opacity:0.0; 
stroke:#008400; stroke-width:60; stroke-opacity:1; 
stroke-linecap:round; stroke-linejoin:round;">
<path d="M88000 34000
L88000 33000
" />
<path d="M88000 33000
L49000 33000
" />
<path d="M49000 33000
L49000 26000
" />
<path d="M88000 35000
L87000 35000
" />
<path d="M87000 35000
L87000 34000
" />
<path d="M87000 34000
L85500 34000
" />
<path d="M88000 36000
L88000 37000
" />
<path d="M88000 37000
L83500 37000
" />
<path d="M51000 24000
L50500 24000
" />
<path d="M50500 24000
L50500 19500
" />
<path d="M50500 19500
L93000 19500
" />
</g> 
</svg>
